<?xml version="1.0" encoding="UTF-8" standalone="no"?>
<!-- Created with Inkscape (http://www.inkscape.org/) -->

<svg
   width="1079.8108"
   height="1917.5789"
   viewBox="0 0 1079.8108 1917.5789"
   version="1.1"
   id="svg1"
   xml:space="preserve"
   xmlns="http://www.w3.org/2000/svg"
   xmlns:svg="http://www.w3.org/2000/svg"><defs
     id="defs1"><clipPath
       clipPathUnits="userSpaceOnUse"
       id="clipPath5-4"><path
         d="M 0,-1 H 3375 V 3001.5625 H 0 Z"
         transform="matrix(0.29401481,0,0,0.29401481,0,110.79615)"
         clip-rule="evenodd"
         id="path5-8" /></clipPath><clipPath
       clipPathUnits="userSpaceOnUse"
       id="clipPath6-3"><path
         d="M 0,-1 H 3375 V 3001.5625 H 0 Z"
         transform="matrix(0.29401481,0,0,0.29401481,0,110.79615)"
         clip-rule="evenodd"
         id="path6-9" /></clipPath><clipPath
       clipPathUnits="userSpaceOnUse"
       id="clipPath7-0"><path
         d="M 0,-1 H 3375 V 3001.5625 H 0 Z"
         transform="matrix(0.29401481,0,0,0.29401481,0,110.79615)"
         clip-rule="evenodd"
         id="path7-5" /></clipPath><clipPath
       clipPathUnits="userSpaceOnUse"
       id="clipPath8-2"><path
         d="M 0,-1 H 3375 V 3001.5625 H 0 Z"
         transform="matrix(0.29401481,0,0,0.29401481,0,110.79615)"
         clip-rule="evenodd"
         id="path8-2" /></clipPath><clipPath
       clipPathUnits="userSpaceOnUse"
       id="clipPath9-7"><path
         d="M 0,-1 H 3375 V 3001.5625 H 0 Z"
         transform="matrix(0.29401481,0,0,0.29401481,0,110.79615)"
         clip-rule="evenodd"
         id="path9-3" /></clipPath><clipPath
       clipPathUnits="userSpaceOnUse"
       id="clipPath10-79"><path
         d="M 0,-1 H 3375 V 3001.5625 H 0 Z"
         transform="matrix(0.29401481,0,0,0.29401481,0,110.79615)"
         clip-rule="evenodd"
         id="path10-0" /></clipPath><clipPath
       clipPathUnits="userSpaceOnUse"
       id="clipPath11-2"><path
         d="M 0,-1 H 3375 V 3001.5625 H 0 Z"
         transform="matrix(0.29401481,0,0,0.29401481,0,110.79615)"
         clip-rule="evenodd"
         id="path11-3" /></clipPath><clipPath
       clipPathUnits="userSpaceOnUse"
       id="clipPath12-9"><path
         d="M 0,-1 H 3375 V 3001.5625 H 0 Z"
         transform="matrix(0.29401481,0,0,0.29401481,0,110.79615)"
         clip-rule="evenodd"
         id="path12-9" /></clipPath><clipPath
       clipPathUnits="userSpaceOnUse"
       id="clipPath13-7"><path
         d="M 0,-1 H 3375 V 3001.5625 H 0 Z"
         transform="matrix(0.29401481,0,0,0.29401481,0,110.79615)"
         clip-rule="evenodd"
         id="path13" /></clipPath><clipPath
       clipPathUnits="userSpaceOnUse"
       id="clipPath14-0"><path
         d="M 0,-1 H 3375 V 3001.5625 H 0 Z"
         transform="matrix(0.29401481,0,0,0.29401481,0,110.79615)"
         clip-rule="evenodd"
         id="path14-3" /></clipPath><clipPath
       clipPathUnits="userSpaceOnUse"
       id="clipPath15-9"><path
         d="M 0,-1 H 3375 V 3001.5625 H 0 Z"
         transform="matrix(0.29401481,0,0,0.29401481,0,110.79615)"
         clip-rule="evenodd"
         id="path15-8" /></clipPath><clipPath
       clipPathUnits="userSpaceOnUse"
       id="clipPath16-6"><path
         d="M 0,-1 H 3375 V 3001.5625 H 0 Z"
         transform="matrix(0.29401481,0,0,0.29401481,0,110.79615)"
         clip-rule="evenodd"
         id="path16" /></clipPath><clipPath
       clipPathUnits="userSpaceOnUse"
       id="clipPath17-5"><path
         d="M 0,-1 H 3375 V 3001.5625 H 0 Z"
         transform="matrix(0.29401481,0,0,0.29401481,0,110.79615)"
         clip-rule="evenodd"
         id="path17-7" /></clipPath><clipPath
       clipPathUnits="userSpaceOnUse"
       id="clipPath18-6"><path
         d="M 0,-1 H 3375 V 3001.5625 H 0 Z"
         transform="matrix(0.29401481,0,0,0.29401481,0,110.79615)"
         clip-rule="evenodd"
         id="path18-27" /></clipPath><clipPath
       clipPathUnits="userSpaceOnUse"
       id="clipPath19-0"><path
         d="M 0,-1 H 3375 V 3001.5625 H 0 Z"
         transform="matrix(0.29401481,0,0,0.29401481,0,110.79615)"
         clip-rule="evenodd"
         id="path19-3" /></clipPath><clipPath
       clipPathUnits="userSpaceOnUse"
       id="clipPath20-9"><path
         d="M 0,-1 H 3375 V 3001.5625 H 0 Z"
         transform="matrix(0.29401481,0,0,0.29401481,0,110.79615)"
         clip-rule="evenodd"
         id="path20-9" /></clipPath><clipPath
       clipPathUnits="userSpaceOnUse"
       id="clipPath21-9"><path
         d="M 0,-1 H 3375 V 3001.5625 H 0 Z"
         transform="matrix(0.29401481,0,0,0.29401481,0,110.79615)"
         clip-rule="evenodd"
         id="path21-1" /></clipPath><clipPath
       clipPathUnits="userSpaceOnUse"
       id="clipPath22-7"><path
         d="M 0,-1 H 3375 V 3001.5625 H 0 Z"
         transform="matrix(0.29401481,0,0,0.29401481,0,110.79615)"
         clip-rule="evenodd"
         id="path22-2" /></clipPath><clipPath
       clipPathUnits="userSpaceOnUse"
       id="clipPath23-3"><path
         d="M 0,-1 H 3375 V 3001.5625 H 0 Z"
         transform="matrix(0.29401481,0,0,0.29401481,0,110.79615)"
         clip-rule="evenodd"
         id="path23-6" /></clipPath><clipPath
       clipPathUnits="userSpaceOnUse"
       id="clipPath24-5"><path
         d="M 0,-1 H 3375 V 3001.5625 H 0 Z"
         transform="matrix(0.29401481,0,0,0.29401481,0,110.79615)"
         clip-rule="evenodd"
         id="path24-5" /></clipPath><clipPath
       clipPathUnits="userSpaceOnUse"
       id="clipPath25-8"><path
         d="M 0,-1 H 3375 V 3001.5625 H 0 Z"
         transform="matrix(0.29401481,0,0,0.29401481,0,110.79615)"
         clip-rule="evenodd"
         id="path25-1" /></clipPath><clipPath
       clipPathUnits="userSpaceOnUse"
       id="clipPath26-4"><path
         d="M 0,-1 H 3375 V 3001.5625 H 0 Z"
         transform="matrix(0.29401481,0,0,0.29401481,0,110.79615)"
         clip-rule="evenodd"
         id="path26" /></clipPath><clipPath
       clipPathUnits="userSpaceOnUse"
       id="clipPath27-7"><path
         d="M 0,-1 H 3375 V 3001.5625 H 0 Z"
         transform="matrix(0.29401481,0,0,0.29401481,0,110.79615)"
         clip-rule="evenodd"
         id="path27-13" /></clipPath><clipPath
       clipPathUnits="userSpaceOnUse"
       id="clipPath28-84"><path
         d="M 0,-1 H 3375 V 3001.5625 H 0 Z"
         transform="matrix(0.29401481,0,0,0.29401481,0,110.79615)"
         clip-rule="evenodd"
         id="path28-8" /></clipPath><clipPath
       clipPathUnits="userSpaceOnUse"
       id="clipPath29-0"><path
         d="M 0,-1 H 3375 V 3001.5625 H 0 Z"
         transform="matrix(0.29401481,0,0,0.29401481,0,110.79615)"
         clip-rule="evenodd"
         id="path29-4" /></clipPath><clipPath
       clipPathUnits="userSpaceOnUse"
       id="clipPath30-60"><path
         d="M 0,-1 H 3375 V 3001.5625 H 0 Z"
         transform="matrix(0.29401481,0,0,0.29401481,0,110.79615)"
         clip-rule="evenodd"
         id="path30-32" /></clipPath><clipPath
       clipPathUnits="userSpaceOnUse"
       id="clipPath31-6"><path
         d="M 0,0 H 3375 V 3004 H 0 Z"
         transform="matrix(0.31999999,0,0,0.31999999,0,10.559927)"
         id="path31-9" /></clipPath><clipPath
       clipPathUnits="userSpaceOnUse"
       id="clipPath58-4"><path
         d="M 0,0 H 3375 V 3004 H 0 Z"
         transform="matrix(0.31999999,0,0,0.31999999,0,10.559927)"
         id="path58-1" /></clipPath><clipPath
       clipPathUnits="userSpaceOnUse"
       id="clipPath59-3"><path
         d="M 0,0 H 3375 V 6000 H 0 Z"
         transform="matrix(0.31999999,0,0,0.31999999,0,10.559927)"
         clip-rule="evenodd"
         id="path59-7" /></clipPath><clipPath
       clipPathUnits="userSpaceOnUse"
       id="clipPath60-8"><path
         d="M 0,0.4375 H 3375 V 2930 H 0 Z"
         transform="matrix(0.29401481,0,0,0.29401481,0,0.87134664)"
         clip-rule="evenodd"
         id="path60-8" /></clipPath><clipPath
       clipPathUnits="userSpaceOnUse"
       id="clipPath61-3"><path
         d="M 0,0.4375 H 3375 V 2930 H 0 Z"
         transform="matrix(0.29401481,0,0,0.29401481,0,0.87134664)"
         clip-rule="evenodd"
         id="path61-8" /></clipPath><clipPath
       clipPathUnits="userSpaceOnUse"
       id="clipPath62-1"><path
         d="M 0,0.4375 H 3375 V 2930 H 0 Z"
         transform="matrix(0.29401481,0,0,0.29401481,0,0.87134664)"
         clip-rule="evenodd"
         id="path62-5" /></clipPath><clipPath
       clipPathUnits="userSpaceOnUse"
       id="clipPath63-3"><path
         d="M 0,0.4375 H 3375 V 2930 H 0 Z"
         transform="matrix(0.29401481,0,0,0.29401481,0,0.87134664)"
         clip-rule="evenodd"
         id="path63-5" /></clipPath><clipPath
       clipPathUnits="userSpaceOnUse"
       id="clipPath64-4"><path
         d="M 0,0.4375 H 3375 V 2930 H 0 Z"
         transform="matrix(0.29401481,0,0,0.29401481,0,0.87134664)"
         clip-rule="evenodd"
         id="path64-3" /></clipPath><clipPath
       clipPathUnits="userSpaceOnUse"
       id="clipPath65-6"><path
         d="M 0,0.4375 H 3375 V 2930 H 0 Z"
         transform="matrix(0.29401481,0,0,0.29401481,0,0.87134664)"
         clip-rule="evenodd"
         id="path65-5" /></clipPath><clipPath
       clipPathUnits="userSpaceOnUse"
       id="clipPath66-9"><path
         d="M 0,0.4375 H 3375 V 2930 H 0 Z"
         transform="matrix(0.29401481,0,0,0.29401481,0,0.87134664)"
         clip-rule="evenodd"
         id="path66-5" /></clipPath><clipPath
       clipPathUnits="userSpaceOnUse"
       id="clipPath67-4"><path
         d="M 0,0.4375 H 3375 V 2930 H 0 Z"
         transform="matrix(0.29401481,0,0,0.29401481,0,0.87134664)"
         clip-rule="evenodd"
         id="path67-9" /></clipPath><clipPath
       clipPathUnits="userSpaceOnUse"
       id="clipPath68-1"><path
         d="M 0,0.4375 H 3375 V 2930 H 0 Z"
         transform="matrix(0.29401481,0,0,0.29401481,0,0.87134664)"
         clip-rule="evenodd"
         id="path68-7" /></clipPath><clipPath
       clipPathUnits="userSpaceOnUse"
       id="clipPath69-5"><path
         d="M 0,0.4375 H 3375 V 2930 H 0 Z"
         transform="matrix(0.29401481,0,0,0.29401481,0,0.87134664)"
         clip-rule="evenodd"
         id="path69-5" /></clipPath><clipPath
       clipPathUnits="userSpaceOnUse"
       id="clipPath70-4"><path
         d="M 0,0.4375 H 3375 V 2930 H 0 Z"
         transform="matrix(0.29401481,0,0,0.29401481,0,0.87134664)"
         clip-rule="evenodd"
         id="path70-1" /></clipPath><clipPath
       clipPathUnits="userSpaceOnUse"
       id="clipPath71-8"><path
         d="M 0,0.4375 H 3375 V 2930 H 0 Z"
         transform="matrix(0.29401481,0,0,0.29401481,0,0.87134664)"
         clip-rule="evenodd"
         id="path71-8" /></clipPath><clipPath
       clipPathUnits="userSpaceOnUse"
       id="clipPath72-3"><path
         d="M 0,0.4375 H 3375 V 2930 H 0 Z"
         transform="matrix(0.29401481,0,0,0.29401481,0,0.87134664)"
         clip-rule="evenodd"
         id="path72-5" /></clipPath><clipPath
       clipPathUnits="userSpaceOnUse"
       id="clipPath73-2"><path
         d="M 0,0.4375 H 3375 V 2930 H 0 Z"
         transform="matrix(0.29401481,0,0,0.29401481,0,0.87134664)"
         clip-rule="evenodd"
         id="path73-2" /></clipPath><clipPath
       clipPathUnits="userSpaceOnUse"
       id="clipPath74-6"><path
         d="M 0,0.4375 H 3375 V 2930 H 0 Z"
         transform="matrix(0.29401481,0,0,0.29401481,0,0.87134664)"
         clip-rule="evenodd"
         id="path74-6" /></clipPath><clipPath
       clipPathUnits="userSpaceOnUse"
       id="clipPath75-7"><path
         d="M 0,0.4375 H 3375 V 2930 H 0 Z"
         transform="matrix(0.29401481,0,0,0.29401481,0,0.87134664)"
         clip-rule="evenodd"
         id="path75-8" /></clipPath><clipPath
       clipPathUnits="userSpaceOnUse"
       id="clipPath76-4"><path
         d="M 0,0.4375 H 3375 V 2930 H 0 Z"
         transform="matrix(0.29401481,0,0,0.29401481,0,0.87134664)"
         clip-rule="evenodd"
         id="path76-1" /></clipPath><clipPath
       clipPathUnits="userSpaceOnUse"
       id="clipPath77-7"><path
         d="M 0,0.4375 H 3375 V 2930 H 0 Z"
         transform="matrix(0.29401481,0,0,0.29401481,0,0.87134664)"
         clip-rule="evenodd"
         id="path77-1" /></clipPath><clipPath
       clipPathUnits="userSpaceOnUse"
       id="clipPath78-8"><path
         d="M 0,0.4375 H 3375 V 2930 H 0 Z"
         transform="matrix(0.29401481,0,0,0.29401481,0,0.87134664)"
         clip-rule="evenodd"
         id="path78-7" /></clipPath><clipPath
       clipPathUnits="userSpaceOnUse"
       id="clipPath79-8"><path
         d="M 0,0.4375 H 3375 V 2930 H 0 Z"
         transform="matrix(0.29401481,0,0,0.29401481,0,0.87134664)"
         clip-rule="evenodd"
         id="path79-7" /></clipPath><clipPath
       clipPathUnits="userSpaceOnUse"
       id="clipPath80-7"><path
         d="M 0,0.4375 H 3375 V 2930 H 0 Z"
         transform="matrix(0.29401481,0,0,0.29401481,0,0.87134664)"
         clip-rule="evenodd"
         id="path80-4" /></clipPath><clipPath
       clipPathUnits="userSpaceOnUse"
       id="clipPath81-4"><path
         d="M 0,0.4375 H 3375 V 2930 H 0 Z"
         transform="matrix(0.29401481,0,0,0.29401481,0,0.87134664)"
         clip-rule="evenodd"
         id="path81-9" /></clipPath><clipPath
       clipPathUnits="userSpaceOnUse"
       id="clipPath82-1"><path
         d="M 0,0.4375 H 3375 V 2930 H 0 Z"
         transform="matrix(0.29401481,0,0,0.29401481,0,0.87134664)"
         clip-rule="evenodd"
         id="path82-5" /></clipPath><clipPath
       clipPathUnits="userSpaceOnUse"
       id="clipPath83-5"><path
         d="M 0,0.4375 H 3375 V 2930 H 0 Z"
         transform="matrix(0.29401481,0,0,0.29401481,0,0.87134664)"
         clip-rule="evenodd"
         id="path83-5" /></clipPath><clipPath
       clipPathUnits="userSpaceOnUse"
       id="clipPath84-8"><path
         d="M 0,0.4375 H 3375 V 2930 H 0 Z"
         transform="matrix(0.29401481,0,0,0.29401481,0,0.87134664)"
         clip-rule="evenodd"
         id="path84-2" /></clipPath><clipPath
       clipPathUnits="userSpaceOnUse"
       id="clipPath85-9"><path
         d="M 0,0.4375 H 3375 V 2930 H 0 Z"
         transform="matrix(0.29401481,0,0,0.29401481,0,0.87134664)"
         clip-rule="evenodd"
         id="path85-8" /></clipPath><clipPath
       clipPathUnits="userSpaceOnUse"
       id="clipPath86-2"><path
         d="M 0,0.4375 H 3375 V 2930 H 0 Z"
         transform="matrix(0.29401481,0,0,0.29401481,0,0.87134664)"
         clip-rule="evenodd"
         id="path86-0" /></clipPath><clipPath
       clipPathUnits="userSpaceOnUse"
       id="clipPath87-7"><path
         d="M 0,0 H 3375 V 2929 H 0 Z"
         transform="matrix(0.31999999,0,0,0.31999999,0,969.91989)"
         id="path87-4" /></clipPath></defs><style
     id="style1" /><style
     id="style1-1" /><style
     id="style1-7" /><g
     id="g1"
     transform="translate(-0.00610352,-2.7029791)"><g
       id="g2"
       transform="matrix(1,0,0,1.0111862,0,12.247725)"
       style="opacity:0.136842;stroke-width:0.994453"><g
         id="g4"
         clip-path="url(#clipPath59-3)"
         transform="translate(0.00610352,-19.999084)"
         style="stroke-width:0.994453"><g
           opacity="0.5"
           id="g58"
           clip-path="url(#clipPath58-4)"
           style="stroke-width:0.994453"><g
             clip-path="url(#clipPath31-6)"
             id="g57"
             style="stroke-width:0.994453"><path
               d="m 331.785,303.815 c -1.43899,0.90601 -2.05499,2.04502 -1.96099,3.72602 0.30599,5.501 4.79,8.78299 10.30899,7.49398 3.225,-0.75399 4.99499,-3.569 4.27899,-6.80801 C 343.164,302.59201 337.064,300.491 331.785,303.815 Z"
               style="fill:#f383a0;fill-opacity:1;fill-rule:nonzero;stroke:none;stroke-width:0.994453"
               transform="matrix(1.0883805,0,0,1.0883805,0,-110.02844)"
               clip-path="url(#clipPath5-4)"
               id="path32" /><path
               d="m 37.706001,255.733 c -1.608001,0.55301 -2.467998,1.521 -2.759998,3.17899 -0.959999,5.42599 2.654999,9.64599 8.323002,9.65301 3.313,0.003 5.68,-2.33301 5.722,-5.64898 0.072,-5.77201 -5.386005,-9.21203 -11.285004,-7.18302 z"
               style="fill:#f383a0;fill-opacity:1;fill-rule:nonzero;stroke:none;stroke-width:0.994453"
               transform="matrix(1.0883805,0,0,1.0883805,0,-110.02844)"
               clip-path="url(#clipPath6-3)"
               id="path33-6" /><path
               d="m 27.718,721.80603 c -1.483999,0.83099 -2.156999,1.935 -2.149999,3.62 0.023,5.50897 4.330999,9.018 9.91,8.01501 3.259998,-0.58698 5.173,-3.30798 4.624,-6.57898 C 39.145,721.16998 33.160999,718.758 27.718,721.80603 Z"
               style="fill:#f383a0;fill-opacity:1;fill-rule:nonzero;stroke:none;stroke-width:0.994453"
               transform="matrix(1.0883805,0,0,1.0883805,0,-110.02844)"
               clip-path="url(#clipPath7-0)"
               id="path34" /><path
               d="m 174.43201,484.599 c -1.14101,0.393 -1.75101,1.078 -1.958,2.255 -0.681,3.849 1.883,6.844 5.905,6.848 2.35001,0.003 4.02901,-1.655 4.06,-4.008 0.05,-4.09399 -3.82201,-6.534 -8.007,-5.095 z"
               style="fill:#f383a0;fill-opacity:1;fill-rule:nonzero;stroke:none;stroke-width:0.994453"
               transform="matrix(1.0883805,0,0,1.0883805,0,-110.02844)"
               clip-path="url(#clipPath8-2)"
               id="path35" /><path
               d="m 400.38699,728.02399 c -2.92498,-1.07099 -5.92898,-1.10498 -8.871,-0.048 -2.393,0.85999 -4.24499,2.34497 -4.61301,5.06598 -0.36801,2.72302 0.92899,4.63001 2.905,5.86298 3.19501,2.28497 7.042,2.76202 10.56699,1.39099 2.59601,-1.01001 4.729,-2.69299 4.759,-5.62903 0.029,-2.91894 -1.29397,-5.37591 -4.74698,-6.64294 z"
               style="fill:#f383a0;fill-opacity:1;fill-rule:nonzero;stroke:none;stroke-width:0.994453"
               transform="matrix(1.0883805,0,0,1.0883805,0,-110.02844)"
               clip-path="url(#clipPath9-7)"
               id="path36" /><path
               d="m 723.34497,265.53 c -1.09399,-2.70801 -3.25799,-4.469 -6.93298,-4.314 -3.112,0.133 -5.89899,1.254 -8.21002,3.35901 -1.88001,1.71301 -3.021,3.793 -2.31598,6.448 0.70501,2.65601 2.63397,3.91901 4.932,4.301 3.82703,0.884 7.56299,-0.15201 10.292,-2.76999 2.01001,-1.92902 3.33398,-4.30103 2.23498,-7.02402 z"
               style="fill:#f383a0;fill-opacity:1;fill-rule:nonzero;stroke:none;stroke-width:0.994453"
               transform="matrix(1.0883805,0,0,1.0883805,0,-110.02844)"
               clip-path="url(#clipPath10-79)"
               id="path37" /><path
               d="m 722.88898,808.763 c -1.14099,0.39301 -1.75098,1.07898 -1.95801,2.25501 -0.68103,3.84899 1.88299,6.84399 5.90503,6.84802 2.34997,0.002 4.02899,-1.65503 4.06,-4.008 0.05,-4.09405 -3.82203,-6.53406 -8.00702,-5.09503 z"
               style="fill:#f383a0;fill-opacity:1;fill-rule:nonzero;stroke:none;stroke-width:0.994453"
               transform="matrix(1.0883805,0,0,1.0883805,0,-110.02844)"
               clip-path="url(#clipPath11-2)"
               id="path38" /><path
               d="m 783.09302,537.27698 c -1.22498,1.17999 -1.59699,2.41803 -1.16303,4.04699 1.41699,5.32398 6.47303,7.62702 11.61603,5.24402 3.00501,-1.393 4.16699,-4.50897 2.80798,-7.53497 -2.367,-5.26404 -8.76599,-6.08203 -13.26098,-1.75604 z"
               style="fill:#f383a0;fill-opacity:1;fill-rule:nonzero;stroke:none;stroke-width:0.994453"
               transform="matrix(1.0883805,0,0,1.0883805,0,-110.02844)"
               clip-path="url(#clipPath12-9)"
               id="path39" /><path
               d="m 529.83899,512.92499 c -1.14099,0.39203 -1.75098,1.078 -1.95801,2.255 -0.68103,3.849 1.883,6.844 5.90503,6.84803 2.34998,0.002 4.03003,-1.65601 4.06,-4.008 0.051,-4.09399 -3.82099,-6.53403 -8.00702,-5.09503 z"
               style="fill:#f383a0;fill-opacity:1;fill-rule:nonzero;stroke:none;stroke-width:0.994453"
               transform="matrix(1.0883805,0,0,1.0883805,0,-110.02844)"
               clip-path="url(#clipPath13-7)"
               id="path40" /><path
               d="m 276.56799,256.79501 c -1.86898,4.973 -1.233,9.91599 0.486,14.74399 2.466,6.92301 6.40701,12.927 11.73199,18.01599 0.44,0.42099 1.272,0.69101 0.95401,1.72 -1.00201,0.013 -1.98801,0.051 -2.974,0.035 -4.94699,-0.079 -9.84299,0.32599 -14.58899,1.78601 -4.931,1.517 -9.57001,3.60901 -13.38501,7.238 -6.33,6.021 -5.468,14.07102 0.055,19.46799 3.70801,3.62201 8.232,5.651 13.24302,6.76502 2.43701,0.54098 4.97799,0.46499 7.35699,1.30499 1.98801,-0.646 3.78201,-0.033 5.53101,0.85901 0.091,-1.12702 0.974,-1.129 1.763,-1.202 1.09698,-0.10101 2.199,-0.18701 3.29999,-0.20801 3.04299,-0.057 6.03399,-0.88501 9.18099,-0.75 -0.33499,0.95902 -1.018,1.418 -1.55398,1.98801 -4.633,4.914 -9.05499,9.97601 -11.81299,16.254 -2.36499,5.38299 -4.25201,10.87701 -3.76401,16.87799 0.461,5.66 3.14402,9.94101 8.387,12.29199 5.21701,2.34101 10.556,2.26502 15.80499,0.016 6.27301,-2.68701 11.64001,-6.67999 16.37201,-11.573 4.23001,-4.372 7.518,-9.40899 10.56201,-14.63299 0.53201,-0.913 0.90399,-1.99399 1.91599,-2.61801 0.928,0.751 1.277,1.703 1.76998,2.54599 2.762,4.72601 6.18601,8.905 10.29599,12.518 6.215,5.465 13.26999,9.01599 21.67499,9.45801 4.62299,0.24201 9.04599,-0.44 12.875,-3.255 6.483,-4.767 7.87702,-11.46 6.405,-18.819 -1.66299,-8.31299 -6.254,-15.142 -12.005,-21.23099 -0.54599,-0.57999 -1.25299,-1.02399 -1.54999,-2.017 4.11801,-0.267 8.21701,-0.53601 12.21399,-1.37601 8.599,-1.807 16.28799,-5.66699 23.15298,-11.08899 3.57401,-2.824 6.52701,-6.24099 8.254,-10.582 3.974,-9.98599 -0.046,-18.56299 -9.362,-22.044 -5.99301,-2.23902 -12.159,-2.58499 -18.397,-1.55899 -7.387,1.21399 -14.41199,3.55999 -20.995,7.182 -1.96499,1.081 -4,2.038 -6.08401,3.094 -0.189,-1.052 0.285,-1.64701 0.52398,-2.284 4.04599,-10.78699 5.91001,-21.888 4.78699,-33.408 -0.45199,-4.639 -1.48999,-9.12801 -4.07101,-13.112 -4.26902,-6.59 -11.318,-8.56 -18.39499,-5.239 -4.09702,1.923 -7.39899,4.83 -10.24899,8.24699 -6.521,7.82001 -11.133,16.68199 -14.112,26.40801 -0.69901,2.28299 -1.43799,4.55301 -2.18201,6.89898 -1.07599,-0.66 -1.23901,-1.57299 -1.57999,-2.39099 -4.427,-10.58301 -11.76098,-18.31599 -22.375,-22.86099 -2.259,-0.966 -4.58801,-1.422 -7.022,-1.513 -5.67792,-0.218 -10.1329,2.70999 -12.13892,8.048 z M 331.785,303.815 c 5.279,-3.323 11.379,-1.22198 12.62799,4.41199 0.71601,3.23901 -1.05398,6.05399 -4.27899,6.80801 -5.51901,1.29001 -10.00201,-1.99301 -10.30899,-7.49301 -0.094,-1.68298 0.521,-2.82098 1.95999,-3.72699 z"
               style="fill:#f25985;fill-opacity:1;fill-rule:nonzero;stroke:none;stroke-width:0.994453"
               transform="matrix(1.0883805,0,0,1.0883805,0,-110.02844)"
               clip-path="url(#clipPath14-0)"
               id="path41" /><path
               d="m 285.522,961.38397 c -7.14898,-2.54602 -14.38299,-2.38397 -21.626,-0.27099 -9.321,2.71997 -17.53301,7.44098 -24.96601,13.625 -1.309,1.08697 -2.543,2.34301 -4.42199,3.15698 0.539,-3.094 1.07899,-5.84198 1.49,-8.60797 1.3,-8.75897 2.321,-17.52503 0.95101,-26.39099 -0.88001,-5.69001 -2.95301,-10.85199 -6.577,-15.33301 -2.479,-3.06299 -5.661,-5.15198 -9.547,-5.94098 -7.67399,-1.55902 -14.29899,0.59003 -19.929,5.93701 -5.003,4.75202 -8.16499,10.67999 -10.532,17.04199 -2.67599,7.19599 -3.98899,14.71198 -4.81199,22.32202 -0.26,2.41199 -0.551,4.82203 -0.88001,7.68403 -2.615,-3.46998 -4.82499,-6.57099 -7.34199,-9.43903 -5.983,-6.81702 -12.909,-12.42401 -21.24001,-16.052 -7.118,-3.09998 -14.491,-4.09998 -21.97,-1.08301 -4.549,1.836 -7.748,4.95599 -9.013,9.823 -0.66,2.53802 -1.206,5.125 -0.939,7.73901 0.931,9.133 4.043,17.31201 10.37099,24.206 1.108,1.208 2.254,2.35699 3.435,3.45501 h 153.62399 c 1.625,-2.25097 3.05399,-4.64099 4.181,-7.23297 1.49201,-3.42798 2.45999,-7.00702 1.79199,-10.83197 -1.22897,-7.04211 -5.50198,-11.47607 -12.04898,-13.80713 z"
               style="fill:#f25985;fill-opacity:1;fill-rule:nonzero;stroke:none;stroke-width:0.994453"
               transform="matrix(1.0883805,0,0,1.0883805,0,-110.02844)"
               clip-path="url(#clipPath15-9)"
               id="path42" /><path
               d="m 29.045,298.871 c 0.726999,-0.767 1.335001,-1.73498 2.464001,-2.11099 0.732,0.94299 0.853998,1.95001 1.140001,2.883 1.609001,5.23199 3.987,10.083 7.161999,14.54 4.800999,6.741 10.857998,11.81 18.938999,14.16199 4.445,1.29199 8.906998,1.64002 13.278,-0.225 7.401001,-3.159 10.288002,-9.357 10.538002,-16.85599 0.281998,-8.474 -2.626999,-16.17099 -6.833,-23.414 -0.399002,-0.689 -0.986,-1.28299 -1.047997,-2.318 4.069,0.68201 8.121002,1.357 12.205002,1.452 8.784004,0.20599 17.152003,-1.793 25.075003,-5.50299 4.125,-1.93201 7.781,-4.58402 10.454,-8.414 6.152,-8.81299 4.199,-18.082 -4.07399,-23.601 -5.322,-3.549 -11.247,-5.29601 -17.553,-5.72301 -7.469007,-0.507 -14.844007,0.17101 -22.081006,2.192 -2.160004,0.603 -4.360001,1.07001 -6.629997,1.62101 0.057,-1.068 0.653999,-1.538 1.031997,-2.10401 6.404999,-9.57699 10.758003,-19.957 12.297997,-31.429 0.620002,-4.619 0.637001,-9.227 -0.966004,-13.69501 -2.650001,-7.392 -9.061996,-10.921 -16.710998,-9.306 -4.428002,0.935 -8.306999,3.01 -11.862,5.685 -8.135002,6.12199 -14.652,13.69501 -19.776001,22.483 -1.201999,2.06301 -2.441002,4.10401 -3.701,6.218 -0.896,-0.888 -0.846001,-1.815 -0.992,-2.68899 -1.89,-11.31599 -7.262002,-20.52 -16.556,-27.371 -1.978,-1.458 -4.141,-2.433 -6.49,-3.079 -3.0019999,-0.824 -5.862,-0.647 -8.3570003706055,0.46201 v 77.50702 C 0.26800761,270.29904 0.5350076,270.36603 0.80200762,270.44104 c -0.23500002,0.36899 -0.51099998,0.633 -0.8019999906055,0.849 v 46.26099 C 5.4980078,316.17102 10.604008,313.79803 15.418008,310.70203 20.535,307.41299 24.886999,303.26199 29.045,298.871 Z m 5.9,-39.95999 c 0.292999,-1.65799 1.152,-2.625 2.759998,-3.179 5.898998,-2.02901 11.356998,1.411 11.284,7.18199 -0.043,3.31601 -2.409999,5.65302 -5.722,5.64899 -5.667,-0.006 -9.280998,-4.22598 -8.321998,-9.65198 z"
               style="fill:#f25985;fill-opacity:1;fill-rule:nonzero;stroke:none;stroke-width:0.994453"
               transform="matrix(1.0883805,0,0,1.0883805,0,-110.02844)"
               clip-path="url(#clipPath16-6)"
               id="path43" /><path
               d="m 105.949,701.27002 c -5.87001,-2.54401 -12.010005,-3.20697 -18.292002,-2.50299 -7.440003,0.83197 -14.576004,2.81299 -21.336998,6.091 -2.017998,0.97901 -4.098999,1.83002 -6.235001,2.776 -0.134998,-1.06097 0.369999,-1.62903 0.640999,-2.25403 4.596001,-10.56402 7.028999,-21.55499 6.500999,-33.117 -0.212997,-4.65601 -1.016998,-9.19202 -3.390998,-13.30402 -3.925,-6.80102 -10.862999,-9.13098 -18.100998,-6.17901 -4.191002,1.70898 -7.638001,4.44299 -10.66,7.70801 -6.914,7.474 -11.977001,16.08599 -15.452999,25.64697 -0.815001,2.24402 -1.67,4.47302 -2.534001,6.77698 -1.040001,-0.71399 -1.156,-1.63501 -1.455,-2.469 C 12.493,681.69598 7.3509998,674.71997 0,669.68201 v 120.37298 c 5.8330002,-2.36999 10.961,-5.87597 15.582,-10.18799 4.449,-4.14898 7.991999,-9.00897 11.300999,-14.07 0.579001,-0.88501 1.005,-1.94501 2.048001,-2.51703 0.888,0.79797 1.187999,1.768 1.635999,2.63501 2.515002,4.86102 5.72,9.211 9.638003,13.031 5.925999,5.77698 12.789001,9.68598 21.16,10.56 4.604999,0.47998 9.057003,0.026 13.024997,-2.58697 6.720002,-4.42701 8.457001,-11.03998 7.365998,-18.46503 -1.233002,-8.38702 -5.467003,-15.44397 -10.897003,-21.82001 -0.515,-0.60699 -1.198998,-1.08697 -1.444001,-2.09399 4.126,-0.055 8.233002,-0.11298 12.267998,-0.74597 8.681,-1.362 16.557999,-4.82001 23.692999,-9.88202 3.715,-2.63599 6.839,-5.89698 8.787,-10.14301 4.48401,-9.76996 0.91101,-18.54297 -8.21399,-22.49896 z M 35.478001,733.44 c -5.577999,1.00299 -9.887001,-2.505 -9.91,-8.01501 -0.007,-1.685 0.666,-2.789 2.149999,-3.62 5.442999,-3.04699 11.427,-0.63501 12.383002,5.05603 0.549,3.27198 -1.364002,5.99201 -4.623001,6.57898 z"
               style="fill:#f25985;fill-opacity:1;fill-rule:nonzero;stroke:none;stroke-width:0.994453"
               transform="matrix(1.0883805,0,0,1.0883805,0,-110.02844)"
               clip-path="url(#clipPath17-5)"
               id="path44" /><path
               d="m 134.381,492.72601 c 1.477,-0.12399 2.617,0.59 3.681,1.48999 0.246,-0.763 0.856,-0.62201 1.412,-0.544 0.774,0.108 1.54899,0.22799 2.313,0.392 2.11101,0.45498 4.31101,0.36801 6.463,0.97198 -0.38699,0.60699 -0.933,0.81299 -1.395,1.12 -3.997,2.643 -7.872,5.42099 -10.79601,9.311 -2.506,3.33401 -4.701,6.823 -5.33701,11.047 -0.59899,3.98401 0.56,7.375 3.799,9.849 3.224,2.46301 6.923,3.276 10.91299,2.57501 4.76801,-0.83899 9.12301,-2.72601 13.185,-5.33801 3.63001,-2.33399 6.718,-5.279 9.668,-8.39502 0.51601,-0.54401 0.94701,-1.23102 1.748,-1.49799 0.519,0.66901 0.60601,1.38397 0.80901,2.04602 1.14101,3.71198 2.828,7.15302 5.08099,10.315 3.40601,4.78199 7.70301,8.37799 13.437,10.047 3.15401,0.91699 6.32001,1.164 9.421,-0.15997 5.25101,-2.24103 7.299,-6.638 7.476,-11.95899 0.2,-6.01202 -1.864,-11.47302 -4.84801,-16.61099 -0.283,-0.48901 -0.69999,-0.91 -0.74299,-1.64401 2.88699,0.483 5.76199,0.962 8.659,1.03 6.23199,0.14599 12.169,-1.27201 17.79,-3.905 2.92701,-1.371 5.52001,-3.25202 7.417,-5.969 4.365,-6.25299 2.979,-12.82901 -2.89101,-16.74499 -3.776,-2.51801 -7.979,-3.75699 -12.453,-4.06101 -5.299,-0.359 -10.532,0.12201 -15.665,1.555 -1.53199,0.42898 -3.093,0.759 -4.70399,1.14999 0.04,-0.75699 0.464,-1.091 0.73199,-1.49301 4.54401,-6.79401 7.63201,-14.159 8.72501,-22.29801 0.44,-3.277 0.452,-6.54599 -0.685,-9.716 -1.88,-5.24399 -6.429,-7.74798 -11.85499,-6.60199 -3.14101,0.664 -5.894,2.13599 -8.416,4.034 -5.77201,4.34299 -10.39501,9.716 -14.03,15.95001 -0.853,1.46399 -1.732,2.91101 -2.62601,4.41101 -0.636,-0.63 -0.60001,-1.28799 -0.70399,-1.90799 -1.34101,-8.02798 -5.15301,-14.55801 -11.74601,-19.418 -1.403,-1.03399 -2.938,-1.72699 -4.60499,-2.185 -3.885,-1.06698 -7.437,0.23301 -9.689,3.594 -2.097,3.13199 -2.46001,6.64801 -2.05499,10.26199 0.58099,5.18 2.328,9.96701 5.181,14.345 0.23599,0.362 0.766,0.68399 0.38,1.34299 -0.694,-0.15399 -1.38099,-0.28699 -2.05999,-0.45801 -3.40401,-0.85699 -6.851,-1.37201 -10.36501,-1.13199 -3.65199,0.24799 -7.195,0.94001 -10.418,2.82801 -5.349,3.13101 -6.059,8.832 -3.12,13.45498 1.973,3.10401 4.769,5.23801 8.049,6.82001 1.593,0.77097 3.36,1.13098 4.86701,2.09799 z m 38.093,-5.871 c 0.20799,-1.177 0.81799,-1.86301 1.95799,-2.255 4.185,-1.439 8.05701,1.001 8.006,5.095 -0.03,2.35299 -1.71001,4.01001 -4.06,4.00699 -4.021,-0.004 -6.58499,-2.999 -5.90399,-6.84699 z"
               style="fill:#f25985;fill-opacity:1;fill-rule:nonzero;stroke:none;stroke-width:0.994453"
               transform="matrix(1.0883805,0,0,1.0883805,0,-110.02844)"
               clip-path="url(#clipPath18-6)"
               id="path45" /><path
               d="m 433.79901,774.59003 c -0.556,-2.20697 -1.582,-4.30701 -1.69601,-6.59497 0.93701,-0.46997 1.71899,-0.085 2.46701,0.10998 13.18499,3.47302 26.444,3.50098 39.74499,0.81897 5.83301,-1.177 11.556,-2.79101 16.67902,-5.94202 3.185,-1.958 6.02801,-4.33801 7.669,-7.85601 3.02399,-6.47699 2.05802,-12.55799 -1.97601,-18.21698 -4.405,-6.18 -10.42898,-10.18799 -17.57901,-12.59998 -9.20001,-3.104 -18.63598,-3.93298 -28.26999,-3.11798 -1.69601,0.14301 -3.42599,0.466 -5.432,0.058 2.21301,-2.229 4.22799,-4.17297 6.14898,-6.20599 6.07999,-6.43799 11.935,-13.04199 15.88501,-21.09601 2.53501,-5.16998 3.79001,-10.58899 3.38199,-16.33697 -0.27899,-3.93103 -1.69299,-7.46503 -4.42801,-10.33698 -5.39999,-5.66998 -12.06299,-7.70001 -19.73999,-6.53802 -6.82199,1.03399 -12.80801,4.083 -18.39099,7.94598 -6.31299,4.36902 -11.69199,9.78101 -16.72198,15.54999 -1.594,1.82898 -3.211,3.63898 -5.12,5.79602 -0.159,-4.341 -0.19601,-8.14899 -0.617,-11.94202 -1.004,-9.01501 -3.474,-17.57599 -8.23001,-25.32001 -4.06202,-6.61602 -9.53602,-11.656 -17.39499,-13.46197 -4.78101,-1.09802 -9.19001,-0.37201 -13.013,2.896 -1.99399,1.70202 -3.922,3.51202 -5.20002,5.80798 -4.46499,8.02197 -6.59298,16.51001 -5.35,25.78497 1.33499,9.96698 5.06299,18.982 10.13699,27.54199 1.37601,2.32099 2.65302,4.70002 3.97601,7.05103 -0.16,0.13702 -0.32,0.27197 -0.48001,0.409 -6.39599,-3.72998 -12.86499,-7.32801 -19.565,-10.474 -8.185,-3.84601 -16.5,-7.40003 -25.28299,-9.67298 -5.392,-1.39599 -10.87399,-2.21698 -16.39899,-0.78399 -6.1,1.58197 -10.63501,5.12903 -12.98098,11.10101 -2.10102,5.34699 -1.51001,10.67499 0.56698,15.88098 4.10001,10.27503 11.64701,17.12799 21.60901,21.552 8.69199,3.85999 17.841,6.11701 27.15,7.83399 0.70401,0.12903 1.609,-0.107 2.117,0.84198 -0.80399,0.31701 -1.53799,0.643 -2.29401,0.901 -12.24099,4.16699 -21.402,12.091 -28.01199,23.06702 -2.03299,3.37597 -3.401,7.065 -4.061,10.96301 -0.98801,5.83502 0.25698,11.00598 4.889,15.02002 2.76999,2.39898 6.10901,3.354 9.698,3.56799 5.396,0.32202 10.67999,-0.53302 15.76001,-2.17999 12.74399,-4.12903 24.539,-10.03003 34.405,-19.34198 0.81399,-0.77002 1.53201,-1.88501 2.99301,-1.98499 0.65302,1.75501 0.634,3.58197 0.90601,5.34302 1.25699,8.14301 3.764,15.797 8.233,22.79999 3.66598,5.74298 8.211,10.66101 13.487,14.88202 3.789,3.03302 8.035,5.32098 12.88199,6.27502 6.41598,1.263 12.82699,-1.14203 16.28201,-6.58197 1.871,-2.94598 3.04199,-6.08899 3.659,-9.48901 2.07995,-11.45813 0.30096,-22.62415 -2.49204,-33.72412 z M 400.375,740.29602 c -3.52499,1.37201 -7.37201,0.89398 -10.56699,-1.39099 -1.97601,-1.23297 -3.27398,-3.14099 -2.90499,-5.86298 0.36801,-2.72198 2.22,-4.20599 4.613,-5.06598 2.94101,-1.05798 5.94501,-1.02301 8.871,0.048 3.45301,1.26703 4.776,3.724 4.74701,6.643 -0.03,2.93695 -2.16302,4.61896 -4.75903,5.62897 z"
               style="fill:#f25985;fill-opacity:1;fill-rule:nonzero;stroke:none;stroke-width:0.994453"
               transform="matrix(1.0883805,0,0,1.0883805,0,-110.02844)"
               clip-path="url(#clipPath19-0)"
               id="path46" /><path
               d="m 975.745,285.14499 c -3.53302,4.70001 -6.62598,9.616 -7.52302,15.57001 -0.84497,5.61599 0.78901,10.39599 5.35499,13.884 4.54303,3.47 9.75799,4.617 15.38201,3.62701 1.07001,-0.18799 2.12598,-0.414 3.167,-0.67498 v -46.26102 c -0.38398,0.285 -0.79401,0.48498 -1.164,0.73099 -5.63495,3.725 -11.09595,7.64199 -15.21698,13.12399 z"
               style="fill:#f25985;fill-opacity:1;fill-rule:nonzero;stroke:none;stroke-width:0.994453"
               transform="matrix(1.0883805,0,0,1.0883805,0,-110.02844)"
               clip-path="url(#clipPath20-9)"
               id="path47" /><path
               d="m 986.82501,197.33501 c -2.95599,4.414 -3.46698,9.371 -2.89697,14.46499 0.81799,7.303 3.28198,14.049 7.302,20.22 0.33197,0.51 1.08002,0.963 0.53601,1.89301 -0.97803,-0.217 -1.94702,-0.405 -2.90399,-0.646 -4.79797,-1.209 -9.65698,-1.933 -14.61102,-1.59599 -5.14698,0.35001 -10.14099,1.325 -14.685,3.985 -7.539,4.414 -8.53998,12.44901 -4.39801,18.966 2.78198,4.37401 6.72198,7.38399 11.34601,9.613 2.24902,1.08401 4.73999,1.591 6.86401,2.953 2.08197,-0.17301 3.69,0.83301 5.18799,2.10199 0.34601,-1.07599 1.20599,-0.87702 1.99103,-0.767 1.09198,0.15201 2.18298,0.32101 3.26001,0.552 2.71301,0.58402 5.531,0.534 8.307,1.16599 v -77.50701 c -2.05609,0.91201 -3.86511,2.459 -5.29907,4.60102 z"
               style="fill:#f25985;fill-opacity:1;fill-rule:nonzero;stroke:none;stroke-width:0.994453"
               transform="matrix(1.0883805,0,0,1.0883805,0,-110.02844)"
               clip-path="url(#clipPath21-9)"
               id="path48" /><path
               d="m 979.65503,664.58698 c -5.65698,-0.50403 -10.25702,2.19 -12.53601,7.41802 -2.12299,4.87 -1.74201,9.83899 -0.27399,14.74903 2.107,7.04101 5.73297,13.23999 10.789,18.59601 0.41803,0.44201 1.23401,0.755 0.86402,1.76703 -1.00098,-0.039 -1.98798,-0.052 -2.97199,-0.11902 -4.93701,-0.33399 -9.84698,-0.18103 -14.66101,1.03302 -5.00299,1.26098 -9.74298,3.11102 -13.73999,6.53802 -6.63202,5.68701 -6.185,13.771 -0.948,19.44599 3.51599,3.80798 7.93,6.06701 12.87702,7.43701 2.406,0.66601 4.94702,0.72101 7.28003,1.68298 2.018,-0.54199 3.77899,0.16199 5.47998,1.14398 0.14898,-1.12097 1.031,-1.078 1.82299,-1.10998 1.10102,-0.045 2.20502,-0.074 3.30604,-0.038 3.04199,0.1 6.07202,-0.57202 9.208,-0.27698 -0.38397,0.94098 -1.09002,1.36402 -1.65399,1.90503 -4.88,4.66901 -9.55597,9.49701 -12.63397,15.625 -2.63898,5.25403 -4.80701,10.64399 -4.62799,16.66199 0.169,5.677 2.62799,10.08899 7.74298,12.706 5.09003,2.60601 10.42499,2.80499 15.78302,0.83001 0.45898,-0.16998 0.914,-0.34601 1.36401,-0.52899 V 669.68204 c -1.72302,-1.18103 -3.56701,-2.25501 -5.53601,-3.22199 -2.2052,-1.08099 -4.5072,-1.656 -6.93414,-1.87304 z"
               style="fill:#f25985;fill-opacity:1;fill-rule:nonzero;stroke:none;stroke-width:0.994453"
               transform="matrix(1.0883805,0,0,1.0883805,0,-110.02844)"
               clip-path="url(#clipPath22-7)"
               id="path49" /><path
               d="m 676.34601,354.276 c 5.10699,-1.772 9.65802,-4.59 13.71698,-8.05899 10.18402,-8.703 18.81201,-18.67801 24.35101,-31.06201 0.45697,-1.022 0.69202,-2.32901 2.00202,-2.98099 1.27697,1.37 1.96002,3.065 2.88598,4.586 4.28498,7.03799 9.53601,13.14499 16.35102,17.897 5.58898,3.89701 11.67297,6.69501 18.164,8.568 4.66302,1.34698 9.46197,1.83099 14.30401,0.85299 6.409,-1.29501 11.40699,-5.97601 12.51099,-12.32501 0.59802,-3.43899 0.47302,-6.79001 -0.26099,-10.16699 -2.47302,-11.38001 -8.401,-21.01001 -15.23797,-30.18799 -1.35999,-1.82501 -3.11402,-3.371 -4.09699,-5.44101 0.685,-0.793 1.55499,-0.73801 2.32099,-0.84399 13.50799,-1.85102 25.763,-6.91199 37.01696,-14.491 4.935,-3.32401 9.60102,-7.01001 13.12299,-11.88699 2.19098,-3.03 3.90198,-6.318 4.06799,-10.19701 0.30799,-7.14101 -2.91803,-12.386 -8.81402,-16.065 -6.43903,-4.017 -13.53998,-5.40601 -21.068,-4.892 -9.68701,0.66299 -18.71899,3.517 -27.302,7.96699 -1.51098,0.782 -2.98498,1.74401 -4.99499,2.137 1.18902,-2.907 2.30401,-5.476 3.29699,-8.09 3.14502,-8.278 6.01801,-16.623 6.57599,-25.576 0.35797,-5.747 -0.56201,-11.232 -3.14398,-16.38401 -1.76599,-3.52299 -4.427,-6.24499 -8.05499,-7.847 -7.16199,-3.16499 -14.094,-2.483 -20.73798,1.53501 -5.90301,3.572 -10.26098,8.685 -13.935,14.395 -4.15399,6.456 -7.04498,13.51801 -9.47601,20.775 -0.771,2.3 -1.57001,4.59199 -2.50403,7.31799 -1.81299,-3.94901 -3.307,-7.451 -5.15198,-10.79201 -4.38598,-7.93899 -9.95202,-14.89799 -17.31402,-20.225 -6.28998,-4.551 -13.27802,-7.105 -21.229,-5.75901 -4.836,0.82001 -8.62903,3.183 -10.90601,7.667 -1.18799,2.33799 -2.27503,4.748 -2.573,7.35899 -1.04498,9.121 0.245,17.776 4.95203,25.865 5.057,8.69201 11.95801,15.58701 19.92798,21.545 2.16101,1.61501 4.25299,3.32201 6.37701,4.98601 -0.095,0.188 -0.19098,0.37399 -0.28601,0.562 -7.33801,-0.991 -14.69202,-1.832 -22.08698,-2.16701 -9.03399,-0.411 -18.07598,-0.50301 -27.05902,0.767 -5.51501,0.78 -10.89203,2.125 -15.445,5.56799 -5.026,3.802 -7.85303,8.81699 -7.72901,15.23099 0.11103,5.74399 2.70099,10.43799 6.61603,14.448 7.729,7.91699 17.32703,11.35 28.224,11.613 9.50702,0.23001 18.82202,-1.195 28.078,-3.182 0.70001,-0.15 1.44397,-0.715 2.27802,-0.035 -0.62097,0.60199 -1.17401,1.185 -1.77301,1.71201 -9.70502,8.544 -15.125,19.37701 -17.01801,32.04901 -0.58197,3.89801 -0.42999,7.82999 0.456,11.68201 1.32702,5.768 4.46002,10.065 10.27801,11.99398 3.47601,1.15607 6.92596,0.75705 10.323,-0.42294 z m 31.85602,-89.70099 c 2.31097,-2.10501 5.09802,-3.22601 8.21002,-3.35901 3.67499,-0.155 5.83899,1.60599 6.93298,4.314 1.099,2.72299 -0.22497,5.095 -2.23498,7.02301 -2.72901,2.61899 -6.46503,3.655 -10.292,2.771 -2.29797,-0.38102 -4.22802,-1.64499 -4.932,-4.301 -0.70502,-2.65402 0.43597,-4.73602 2.31598,-6.448 z"
               style="fill:#f25985;fill-opacity:1;fill-rule:nonzero;stroke:none;stroke-width:0.994453"
               transform="matrix(1.0883805,0,0,1.0883805,0,-110.02844)"
               clip-path="url(#clipPath23-3)"
               id="path50" /><path
               d="m 108.812,65.695999 c 9.24299,6.079003 19.354,7.378998 30.055,5.305 9.336,-1.809997 18.13001,-5.194999 26.747,-9.116001 0.65199,-0.297001 1.25799,-1.008999 2.218,-0.521999 -0.478,0.720001 -0.89301,1.409 -1.366,2.052002 -7.653,10.422996 -10.62899,22.164001 -9.766,34.948006 0.265,3.932003 1.255,7.739993 2.945,11.314003 2.53,5.35 6.51,8.877 12.60601,9.517 3.64399,0.382 6.929,-0.746 9.99499,-2.625 4.609,-2.824 8.452,-6.551 11.67501,-10.807 8.08599,-10.680002 14.38,-22.270006 17.141,-35.552003 0.22701,-1.097 0.177,-2.422997 1.31799,-3.339997 1.54,1.065003 2.571,2.573998 3.80001,3.862 5.692,5.958 12.128,10.800003 19.802,13.984001 6.293,2.611 12.83501,4.042 19.577,4.483002 4.843,0.318001 9.63499,-0.235001 14.15599,-2.226998 5.983,-2.637001 9.86401,-8.277999 9.58401,-14.716003 -0.15201,-3.487 -0.991,-6.734001 -2.431,-9.875 -4.85101,-10.588001 -12.70199,-18.724999 -21.345,-26.228001 -1.71899,-1.491001 -3.763,-2.626999 -5.166,-4.437999 0.49899,-0.922001 1.36101,-1.053 2.086,-1.322001 12.8,-4.698 23.688,-12.265001 33.059,-22.0769996 2.17801,-2.2810001 4.262,-4.6459999 6.09501,-7.1859998 H 137.97301 c 6.06599,5.637 13.058,9.8830004 20.64199,13.3280004 2.456,1.114999 4.866,2.334999 7.29601,3.506 -0.053,0.204001 -0.10699,0.406 -0.16,0.610001 -7.379,0.601999 -14.74401,1.354 -22.039,2.608999 -8.913,1.532 -17.765,3.375999 -26.268,6.539999 -5.22,1.941999 -10.185,4.406002 -13.89601,8.743 -4.096996,4.789002 -5.783992,10.293999 -4.290996,16.533001 1.338996,5.586987 4.872996,9.617989 9.554996,12.696987 z m 85.358,-43.566 c 1.80701,-2.551 4.289,-4.242 7.30099,-5.038 3.55701,-0.938 6.04801,0.319 7.696,2.73 1.65601,2.424999 0.87,5.024999 -0.681,7.339 -2.10499,3.142 -5.533,4.952999 -9.461,4.908001 -2.32699,0.119999 -4.48199,-0.701999 -5.738,-3.145 C 192.03101,26.483 192.7,24.205999 194.17,22.129999 Z"
               style="fill:#f25985;fill-opacity:1;fill-rule:nonzero;stroke:none;stroke-width:0.994453"
               transform="matrix(1.0883805,0,0,1.0883805,0,-110.02844)"
               clip-path="url(#clipPath24-5)"
               id="path51" /><path
               d="m 510.02399,959.935 c -3.14099,0.664 -5.89402,2.13598 -8.41602,4.03399 -5.772,4.34302 -10.39499,9.71601 -14.03,15.95099 -0.85299,1.46302 -1.73199,2.91199 -2.626,4.41101 -0.63599,-0.63 -0.60001,-1.28802 -0.70401,-1.90802 -1.34101,-8.02801 -5.15299,-14.55798 -11.74601,-19.41797 -1.40301,-1.03497 -2.93799,-1.72698 -4.60501,-2.18402 -3.88501,-1.06701 -7.43701,0.232 -9.68899,3.594 -2.098,3.13098 -2.45999,6.64801 -2.056,10.26202 0.58099,5.18103 2.32901,9.96698 5.181,14.34497 0.23599,0.362 0.76599,0.68402 0.38,1.34302 -0.694,-0.15301 -1.38101,-0.28699 -2.06,-0.45801 -3.40399,-0.85699 -6.85101,-1.37097 -10.36599,-1.13202 -3.65201,0.24799 -7.19501,0.94001 -10.418,2.82801 -0.84201,0.49298 -1.568,1.04797 -2.18399,1.65503 h 80.32797 c 2.81097,-5.29303 4.73602,-10.93299 5.55102,-17.00202 0.44001,-3.27698 0.45203,-6.54602 -0.68499,-9.716 C 520,961.29303 515.45099,958.789 510.02399,959.935 Z"
               style="fill:#f25985;fill-opacity:1;fill-rule:nonzero;stroke:none;stroke-width:0.994453"
               transform="matrix(1.0883805,0,0,1.0883805,0,-110.02844)"
               clip-path="url(#clipPath25-8)"
               id="path52" /><path
               d="m 854.00098,948.82501 c -4.27002,-6.59002 -11.31897,-8.56 -18.396,-5.23901 -4.09698,1.92297 -7.39899,4.83002 -10.24902,8.24701 -6.52002,7.81897 -11.133,16.682 -14.112,26.40802 -0.69898,2.28302 -1.43799,4.55298 -2.18201,6.89898 -1.07599,-0.65899 -1.23901,-1.57299 -1.58099,-2.39099 -4.427,-10.58398 -11.76099,-18.31598 -22.375,-22.86102 -2.25898,-0.96698 -4.58802,-1.422 -7.02198,-1.51398 -5.67602,-0.21197 -10.13098,2.71503 -12.13702,8.05402 -1.86902,4.97302 -1.23297,9.91602 0.48602,14.74402 1.56702,4.39801 3.72998,8.42602 6.46399,12.08398 h 81.14197 c 3.51898,-10.13 5.08301,-20.54199 4.03198,-31.31903 -0.45092,-4.63904 -1.48895,-9.12903 -4.06994,-13.112 z"
               style="fill:#f25985;fill-opacity:1;fill-rule:nonzero;stroke:none;stroke-width:0.994453"
               transform="matrix(1.0883805,0,0,1.0883805,0,-110.02844)"
               clip-path="url(#clipPath26-4)"
               id="path53" /><path
               d="m 879.83899,987.354 c -6.47699,1.06403 -12.677,2.99903 -18.54297,5.90198 h 43.758 c -1.76001,-1.83099 -4.05603,-3.31097 -6.818,-4.34302 -5.99304,-2.23797 -12.16003,-2.58496 -18.39703,-1.55896 z"
               style="fill:#f25985;fill-opacity:1;fill-rule:nonzero;stroke:none;stroke-width:0.994453"
               transform="matrix(1.0883805,0,0,1.0883805,0,-110.02844)"
               clip-path="url(#clipPath27-7)"
               id="path54" /><path
               d="m 775.57202,827.03101 c 2.927,-1.37098 5.52002,-3.25202 7.41699,-5.96997 4.36499,-6.253 2.97901,-12.82801 -2.89099,-16.74402 -3.776,-2.51801 -7.979,-3.75702 -12.45398,-4.06098 -5.29797,-0.35901 -10.531,0.12201 -15.66498,1.555 -1.53302,0.42901 -3.09301,0.75897 -4.70397,1.15002 0.04,-0.75702 0.46398,-1.091 0.73199,-1.492 4.54401,-6.79401 7.63202,-14.159 8.72498,-22.29798 0.44,-3.27698 0.45202,-6.54498 -0.685,-9.716 -1.88001,-5.24402 -6.42902,-7.74799 -11.85498,-6.60199 -3.14099,0.664 -5.89398,2.13598 -8.41602,4.03399 -5.77197,4.34302 -10.39502,9.71601 -14.03003,15.95002 -0.85302,1.46399 -1.73199,2.91198 -2.62597,4.41198 -0.63599,-0.63 -0.59998,-1.28802 -0.70398,-1.90802 -1.34101,-8.02801 -5.15198,-14.55798 -11.74598,-19.419 -1.40301,-1.034 -2.93798,-1.72602 -4.60498,-2.18402 -3.88501,-1.06702 -7.43701,0.23199 -9.68902,3.59399 -2.09802,3.13098 -2.46002,6.64801 -2.05603,10.26203 0.58002,5.18103 2.328,9.96698 5.18103,14.346 0.23602,0.362 0.76599,0.68402 0.38,1.34302 -0.69397,-0.15399 -1.38098,-0.28699 -2.05999,-0.45801 -3.404,-0.85699 -6.85102,-1.37097 -10.36499,-1.13202 -3.65198,0.24799 -7.19501,0.94001 -10.41803,2.82801 -5.349,3.13098 -6.05903,8.83197 -3.12,13.45501 1.974,3.10401 4.76898,5.23798 8.04901,6.82001 1.59497,0.77002 3.36298,1.12799 4.87,2.09497 1.47699,-0.12402 2.617,0.59003 3.68103,1.49103 0.24499,-0.76398 0.85602,-0.62201 1.41198,-0.54401 0.77399,0.10797 1.54902,0.22803 2.31299,0.39203 2.11103,0.45398 4.31098,0.36701 6.46302,0.97101 -0.38703,0.60797 -0.93299,0.81403 -1.39502,1.12 -3.99701,2.643 -7.87201,5.42199 -10.79602,9.31201 -2.50599,3.33398 -4.70099,6.82202 -5.33698,11.04602 -0.599,3.98401 0.56,7.375 3.79901,9.849 3.224,2.46301 6.92298,3.27697 10.91303,2.57501 4.768,-0.83899 9.12298,-2.72601 13.18499,-5.33801 3.63001,-2.33399 6.71802,-5.27899 9.66803,-8.39399 0.516,-0.544 0.948,-1.23101 1.74799,-1.49798 0.51898,0.66901 0.60602,1.38299 0.80902,2.04602 1.14099,3.711 2.828,7.15301 5.08099,10.315 3.40601,4.78198 7.70301,8.37903 13.43598,10.047 3.15399,0.91699 6.32001,1.164 9.42102,-0.15997 5.25098,-2.24103 7.29901,-6.638 7.47601,-11.95899 0.20001,-6.01202 -1.86401,-11.47302 -4.84802,-16.61102 -0.28302,-0.48902 -0.70001,-0.90997 -0.74298,-1.64502 2.88702,0.48401 5.76099,0.96301 8.659,1.03003 6.23284,0.14477 12.16882,-1.27423 17.78985,-3.90521 z m -48.737,-9.16498 c -4.02099,-0.004 -6.58502,-2.99903 -5.90503,-6.84699 0.20801,-1.177 0.818,-1.86297 1.95801,-2.25598 4.185,-1.43902 8.05701,1.00098 8.00598,5.09497 -0.03,2.35297 -1.70898,4.01099 -4.05896,4.008 z"
               style="fill:#f25985;fill-opacity:1;fill-rule:nonzero;stroke:none;stroke-width:0.994453"
               transform="matrix(1.0883805,0,0,1.0883805,0,-110.02844)"
               clip-path="url(#clipPath28-84)"
               id="path55" /><path
               d="m 853.57703,497.60501 c -6.32203,-0.97501 -12.43103,-0.062 -18.33002,2.20902 -6.987,2.68798 -13.38898,6.41299 -19.099,11.29501 -1.70398,1.45798 -3.50201,2.80801 -5.32898,4.26401 -0.39899,-0.99103 -0.055,-1.66901 0.05,-2.34302 1.77099,-11.384 1.34302,-22.63199 -2.09601,-33.685 -1.38397,-4.45001 -3.31201,-8.63501 -6.64801,-12.01199 -5.51801,-5.586 -12.82098,-6.08301 -19.07599,-1.39499 -3.62097,2.715 -6.26501,6.23199 -8.36102,10.15601 -4.797,8.98001 -7.51502,18.59399 -8.45697,28.72299 -0.22101,2.37701 -0.48401,4.75 -0.73499,7.19803 -1.18701,-0.42701 -1.53198,-1.28901 -2.03302,-2.021 -6.48401,-9.46399 -15.23498,-15.54599 -26.55102,-17.84299 -2.40802,-0.487 -4.78101,-0.45999 -7.18299,-0.056 -5.59997,0.94501 -9.36798,4.715 -10.24902,10.35001 -0.82098,5.25 0.80603,9.95999 3.46899,14.33798 3.82001,6.27802 8.89801,11.357 15.14502,15.258 0.516,0.32299 1.38599,0.41803 1.28302,1.48999 -0.97802,0.21698 -1.93597,0.45398 -2.90503,0.638 -4.85998,0.927 -9.57202,2.31799 -13.92199,4.711 -4.52002,2.48602 -8.63703,5.47601 -11.63703,9.80297 -4.97601,7.18103 -2.49701,14.88898 4.00599,19.05201 4.36602,2.794 9.208,3.862 14.34002,3.93499 2.49597,0.035 4.969,-0.55499 7.469,-0.21502 1.815,-1.03601 3.69702,-0.80103 5.591,-0.28101 -0.14001,-1.12201 0.724,-1.30401 1.48199,-1.53497 1.05402,-0.32202 2.11499,-0.62903 3.18799,-0.87299 2.96802,-0.67401 5.72901,-2.09198 8.83802,-2.599 -0.13398,1.00702 -0.70899,1.59497 -1.11799,2.26099 -3.539,5.75299 -6.841,11.60797 -8.26702,18.31598 -1.22303,5.75 -1.95502,11.513 -0.25898,17.28998 1.60102,5.44897 5.09699,9.09497 10.70801,10.333 5.58301,1.232 10.79602,0.075 15.47803,-3.19299 5.59601,-3.90503 10.04199,-8.90301 13.68201,-14.656 3.25402,-5.141 5.45098,-10.73999 7.37097,-16.474 0.336,-1.00098 0.47998,-2.13599 1.34399,-2.95301 1.06098,0.547 1.59601,1.409 2.25,2.13398 3.664,4.06597 7.86499,7.46301 12.62299,10.16699 7.195,4.08899 14.82501,6.13202 23.14398,4.85901 4.57599,-0.70203 8.76898,-2.26801 11.94598,-5.80103 5.38001,-5.98401 5.38599,-12.82098 2.45099,-19.72803 -3.31598,-7.802 -9.198,-13.557 -16.06598,-18.35199 -0.65301,-0.45697 -1.43499,-0.74798 -1.927,-1.65997 3.97803,-1.09698 7.93597,-2.19202 11.67999,-3.82703 8.05298,-3.51599 14.79798,-8.85601 20.41901,-15.55999 2.927,-3.48999 5.12402,-7.43598 5.93402,-12.03699 1.86401,-10.58096 -3.81396,-18.16296 -13.64294,-19.68094 z m -60.03101,48.96298 c -5.143,2.383 -10.19897,0.08 -11.61499,-5.24402 -0.43402,-1.62799 -0.062,-2.867 1.16303,-4.04699 4.49499,-4.32599 10.89398,-3.508 13.26,1.75598 1.35792,3.02606 0.19697,6.14307 -2.80804,7.53503 z"
               style="fill:#f25985;fill-opacity:1;fill-rule:nonzero;stroke:none;stroke-width:0.994453"
               transform="matrix(1.0883805,0,0,1.0883805,0,-110.02844)"
               clip-path="url(#clipPath29-0)"
               id="path56" /><path
               d="m 587.04901,508.479 c -3.776,-2.518 -7.979,-3.75698 -12.453,-4.05999 -5.29901,-0.35999 -10.53101,0.121 -15.66498,1.55499 -1.53302,0.42898 -3.09302,0.759 -4.70398,1.14999 0.04,-0.75699 0.46399,-1.091 0.73297,-1.49301 4.54401,-6.794 7.63202,-14.159 8.72498,-22.297 0.44,-3.27801 0.45202,-6.54599 -0.685,-9.71701 -1.88,-5.24398 -6.42902,-7.74798 -11.85602,-6.60199 -3.14099,0.66401 -5.89398,2.13599 -8.41601,4.034 -5.77198,4.34299 -10.39502,9.715 -14.03003,15.95099 -0.85303,1.46301 -1.73102,2.91101 -2.625,4.41101 -0.63599,-0.63 -0.59998,-1.28699 -0.70398,-1.90799 -1.34101,-8.02801 -5.15302,-14.55801 -11.74597,-19.418 -1.40302,-1.034 -2.93799,-1.72699 -4.60502,-2.185 -3.885,-1.06698 -7.43701,0.232 -9.68899,3.594 -2.09799,3.13199 -2.45999,6.64898 -2.056,10.263 0.58099,5.181 2.32901,9.96701 5.181,14.34601 0.23498,0.362 0.76599,0.68301 0.38,1.34201 -0.694,-0.15399 -1.38101,-0.288 -2.05999,-0.45801 -3.40399,-0.857 -6.85102,-1.371 -10.366,-1.13199 -3.65201,0.24899 -7.19501,0.94 -10.418,2.827 -5.349,3.13199 -6.05899,8.833 -3.11999,13.45599 1.97299,3.10303 4.76901,5.23798 8.04901,6.82001 1.595,0.77002 3.362,1.12903 4.86999,2.09497 1.478,-0.12299 2.61801,0.591 3.681,1.49103 0.245,-0.76398 0.85599,-0.62201 1.413,-0.54401 0.77398,0.10797 1.54901,0.22699 2.31201,0.39099 2.11099,0.45502 4.311,0.36798 6.46301,0.97101 -0.38699,0.60797 -0.93301,0.81403 -1.39499,1.12097 -3.99701,2.64301 -7.87201,5.42102 -10.79599,9.31098 -2.50601,3.33398 -4.70099,6.82299 -5.337,11.04699 -0.599,3.98401 0.55899,7.375 3.79901,9.84998 3.22299,2.46301 6.923,3.276 10.91299,2.57397 4.76801,-0.83899 9.12299,-2.72601 13.185,-5.33801 3.63,-2.33398 6.71802,-5.27899 9.66803,-8.39502 0.51599,-0.54401 0.94702,-1.23102 1.74798,-1.49701 0.51899,0.66901 0.60602,1.383 0.80903,2.04602 1.14099,3.711 2.828,7.15302 5.08099,10.315 3.406,4.78199 7.703,8.37903 13.43701,10.047 3.15399,0.91699 6.31903,1.164 9.41998,-0.159 5.25098,-2.242 7.29901,-6.63897 7.47602,-11.96002 0.20001,-6.01098 -1.86402,-11.47302 -4.84803,-16.60998 -0.28302,-0.48999 -0.70001,-0.91101 -0.74298,-1.64502 2.88703,0.48401 5.76203,0.96197 8.659,1.03003 6.23199,0.14599 12.16901,-1.27198 17.78998,-3.90399 2.92602,-1.37 5.52002,-3.25202 7.41699,-5.96998 4.36395,-6.2539 2.97797,-12.83093 -2.89203,-16.74591 z m -53.26404,13.54902 c -4.02099,-0.004 -6.58502,-2.99903 -5.90503,-6.84803 0.20801,-1.177 0.818,-1.86297 1.95899,-2.255 4.185,-1.439 8.05701,1.00097 8.00598,5.09497 -0.0299,2.35303 -1.70892,4.01105 -4.05994,4.00806 z"
               style="fill:#f25985;fill-opacity:1;fill-rule:nonzero;stroke:none;stroke-width:0.994453"
               transform="matrix(1.0883805,0,0,1.0883805,0,-110.02844)"
               clip-path="url(#clipPath30-60)"
               id="path57" /></g></g></g><g
         id="g59"
         transform="translate(0.00610351,-19.18628)"
         style="stroke-width:0.994453"><g
           opacity="0.5"
           id="g115"
           style="stroke-width:0.994453"><g
             clip-path="url(#clipPath87-7)"
             id="g114"
             style="stroke-width:0.994453"><path
               d="m 331.785,303.815 c -1.43899,0.90601 -2.05499,2.04502 -1.96099,3.72602 0.30599,5.501 4.79,8.78299 10.30899,7.49398 3.225,-0.75399 4.99499,-3.569 4.27899,-6.80801 C 343.164,302.59201 337.064,300.491 331.785,303.815 Z"
               style="fill:#f383a0;fill-opacity:1;fill-rule:nonzero;stroke:none;stroke-width:0.994453"
               transform="matrix(1.0883805,0,0,1.0883805,0,968.97153)"
               clip-path="url(#clipPath60-8)"
               id="path88" /><path
               d="m 37.706001,255.733 c -1.608001,0.55301 -2.467998,1.521 -2.759998,3.17899 -0.959999,5.42599 2.654999,9.64599 8.323002,9.65301 3.313,0.003 5.68,-2.33301 5.722,-5.64898 0.072,-5.77201 -5.386005,-9.21203 -11.285004,-7.18302 z"
               style="fill:#f383a0;fill-opacity:1;fill-rule:nonzero;stroke:none;stroke-width:0.994453"
               transform="matrix(1.0883805,0,0,1.0883805,0,968.97153)"
               clip-path="url(#clipPath61-3)"
               id="path89" /><path
               d="m 27.718,721.80603 c -1.483999,0.83099 -2.156999,1.935 -2.149999,3.62 0.023,5.50897 4.330999,9.018 9.91,8.01501 3.259998,-0.58698 5.173,-3.30798 4.624,-6.57898 C 39.145,721.16998 33.160999,718.758 27.718,721.80603 Z"
               style="fill:#f383a0;fill-opacity:1;fill-rule:nonzero;stroke:none;stroke-width:0.994453"
               transform="matrix(1.0883805,0,0,1.0883805,0,968.97153)"
               clip-path="url(#clipPath62-1)"
               id="path90" /><path
               d="m 174.43201,484.599 c -1.14101,0.393 -1.75101,1.078 -1.958,2.255 -0.681,3.849 1.883,6.844 5.905,6.848 2.35001,0.003 4.02901,-1.655 4.06,-4.008 0.05,-4.09399 -3.82201,-6.534 -8.007,-5.095 z"
               style="fill:#f383a0;fill-opacity:1;fill-rule:nonzero;stroke:none;stroke-width:0.994453"
               transform="matrix(1.0883805,0,0,1.0883805,0,968.97153)"
               clip-path="url(#clipPath63-3)"
               id="path91" /><path
               d="m 400.38699,728.02399 c -2.92498,-1.07099 -5.92898,-1.10498 -8.871,-0.048 -2.393,0.85999 -4.24499,2.34497 -4.61301,5.06598 -0.36801,2.72302 0.92899,4.63001 2.905,5.86298 3.19501,2.28497 7.042,2.76202 10.56699,1.39099 2.59601,-1.01001 4.729,-2.69299 4.759,-5.62903 0.029,-2.91894 -1.29397,-5.37591 -4.74698,-6.64294 z"
               style="fill:#f383a0;fill-opacity:1;fill-rule:nonzero;stroke:none;stroke-width:0.994453"
               transform="matrix(1.0883805,0,0,1.0883805,0,968.97153)"
               clip-path="url(#clipPath64-4)"
               id="path92" /><path
               d="m 723.34497,265.53 c -1.09399,-2.70801 -3.25799,-4.469 -6.93298,-4.314 -3.112,0.133 -5.89899,1.254 -8.21002,3.35901 -1.88001,1.71301 -3.021,3.793 -2.31598,6.448 0.70501,2.65601 2.63397,3.91901 4.932,4.301 3.82703,0.884 7.56299,-0.15201 10.292,-2.76999 2.01001,-1.92902 3.33398,-4.30103 2.23498,-7.02402 z"
               style="fill:#f383a0;fill-opacity:1;fill-rule:nonzero;stroke:none;stroke-width:0.994453"
               transform="matrix(1.0883805,0,0,1.0883805,0,968.97153)"
               clip-path="url(#clipPath65-6)"
               id="path93" /><path
               d="m 201.47099,17.091999 c -3.01199,0.796 -5.494,2.487 -7.30099,5.038 -1.47,2.075001 -2.13899,4.351999 -0.883,6.794001 1.25701,2.444 3.41201,3.264999 5.73801,3.145 3.927,0.044 7.35499,-1.767 9.461,-4.908001 1.55099,-2.313999 2.337,-4.913999 0.681,-7.339 -1.64801,-2.409998 -4.13901,-3.668 -7.69602,-2.73 z"
               style="fill:#f383a0;fill-opacity:1;fill-rule:nonzero;stroke:none;stroke-width:0.994453"
               transform="matrix(1.0883805,0,0,1.0883805,0,968.97153)"
               clip-path="url(#clipPath66-9)"
               id="path94" /><path
               d="m 488.72,13.719 c -1.14099,0.393 -1.75,1.079 -1.95801,2.256 -0.681,3.849001 1.883,6.843001 5.904,6.848 2.35,0.002 4.02899,-1.655001 4.05999,-4.007999 C 496.77802,14.72 492.90601,12.28 488.72,13.719 Z"
               style="fill:#f383a0;fill-opacity:1;fill-rule:nonzero;stroke:none;stroke-width:0.994453"
               transform="matrix(1.0883805,0,0,1.0883805,0,968.97153)"
               clip-path="url(#clipPath67-4)"
               id="path95" /><path
               d="m 833.79303,25.733999 c -1.24799,-5.635 -7.34802,-7.736 -12.62701,-4.412 -1.43903,0.906 -2.055,2.044 -1.961,3.725999 0.30603,5.5 4.78998,8.782999 10.30902,7.494002 3.22497,-0.754 4.99493,-3.57 4.27899,-6.808001 z"
               style="fill:#f383a0;fill-opacity:1;fill-rule:nonzero;stroke:none;stroke-width:0.994453"
               transform="matrix(1.0883805,0,0,1.0883805,0,968.97153)"
               clip-path="url(#clipPath68-1)"
               id="path96" /><path
               d="m 722.88898,808.763 c -1.14099,0.39301 -1.75098,1.07898 -1.95801,2.25501 -0.68103,3.84899 1.88299,6.84399 5.90503,6.84802 2.34997,0.002 4.02899,-1.65503 4.06,-4.008 0.05,-4.09405 -3.82203,-6.53406 -8.00702,-5.09503 z"
               style="fill:#f383a0;fill-opacity:1;fill-rule:nonzero;stroke:none;stroke-width:0.994453"
               transform="matrix(1.0883805,0,0,1.0883805,0,968.97153)"
               clip-path="url(#clipPath69-5)"
               id="path97" /><path
               d="m 783.09302,537.27698 c -1.22498,1.17999 -1.59699,2.41803 -1.16303,4.04699 1.41699,5.32398 6.47303,7.62702 11.61603,5.24402 3.00501,-1.393 4.16699,-4.50897 2.80798,-7.53497 -2.367,-5.26404 -8.76599,-6.08203 -13.26098,-1.75604 z"
               style="fill:#f383a0;fill-opacity:1;fill-rule:nonzero;stroke:none;stroke-width:0.994453"
               transform="matrix(1.0883805,0,0,1.0883805,0,968.97153)"
               clip-path="url(#clipPath70-4)"
               id="path98" /><path
               d="m 529.83899,512.92499 c -1.14099,0.39203 -1.75098,1.078 -1.95801,2.255 -0.68103,3.849 1.883,6.844 5.90503,6.84803 2.34998,0.002 4.03003,-1.65601 4.06,-4.008 0.051,-4.09399 -3.82099,-6.53403 -8.00702,-5.09503 z"
               style="fill:#f383a0;fill-opacity:1;fill-rule:nonzero;stroke:none;stroke-width:0.994453"
               transform="matrix(1.0883805,0,0,1.0883805,0,968.97153)"
               clip-path="url(#clipPath71-8)"
               id="path99" /><path
               d="m 276.56799,256.79501 c -1.86898,4.973 -1.233,9.91599 0.486,14.74399 2.466,6.92301 6.40701,12.927 11.73199,18.01599 0.44,0.42099 1.272,0.69101 0.95401,1.72 -1.00201,0.013 -1.98801,0.051 -2.974,0.035 -4.94699,-0.079 -9.84299,0.32599 -14.58899,1.78601 -4.931,1.517 -9.57001,3.60901 -13.38501,7.238 -6.33,6.021 -5.468,14.07102 0.055,19.46799 3.70801,3.62201 8.232,5.651 13.24302,6.76502 2.43701,0.54098 4.97799,0.46499 7.35699,1.30499 1.98801,-0.646 3.78201,-0.033 5.53101,0.85901 0.091,-1.12702 0.974,-1.129 1.763,-1.202 1.09698,-0.10101 2.199,-0.18701 3.29999,-0.20801 3.04299,-0.057 6.03399,-0.88501 9.18099,-0.75 -0.33499,0.95902 -1.018,1.418 -1.55398,1.98801 -4.633,4.914 -9.05499,9.97601 -11.81299,16.254 -2.36499,5.38299 -4.25201,10.87701 -3.76401,16.87799 0.461,5.66 3.14402,9.94101 8.387,12.29199 5.21701,2.34101 10.556,2.26502 15.80499,0.016 6.27301,-2.68701 11.64001,-6.67999 16.37201,-11.573 4.23001,-4.372 7.518,-9.40899 10.56201,-14.63299 0.53201,-0.913 0.90399,-1.99399 1.91599,-2.61801 0.928,0.751 1.277,1.703 1.76998,2.54599 2.762,4.72601 6.18601,8.905 10.29599,12.518 6.215,5.465 13.26999,9.01599 21.67499,9.45801 4.62299,0.24201 9.04599,-0.44 12.875,-3.255 6.483,-4.767 7.87702,-11.46 6.405,-18.819 -1.66299,-8.31299 -6.254,-15.142 -12.005,-21.23099 -0.54599,-0.57999 -1.25299,-1.02399 -1.54999,-2.017 4.11801,-0.267 8.21701,-0.53601 12.21399,-1.37601 8.599,-1.807 16.28799,-5.66699 23.15298,-11.08899 3.57401,-2.824 6.52701,-6.24099 8.254,-10.582 3.974,-9.98599 -0.046,-18.56299 -9.362,-22.044 -5.99301,-2.23902 -12.159,-2.58499 -18.397,-1.55899 -7.387,1.21399 -14.41199,3.55999 -20.995,7.182 -1.96499,1.081 -4,2.038 -6.08401,3.094 -0.189,-1.052 0.285,-1.64701 0.52398,-2.284 4.04599,-10.78699 5.91001,-21.888 4.78699,-33.408 -0.45199,-4.639 -1.48999,-9.12801 -4.07101,-13.112 -4.26902,-6.59 -11.318,-8.56 -18.39499,-5.239 -4.09702,1.923 -7.39899,4.83 -10.24899,8.24699 -6.521,7.82001 -11.133,16.68199 -14.112,26.40801 -0.69901,2.28299 -1.43799,4.55301 -2.18201,6.89898 -1.07599,-0.66 -1.23901,-1.57299 -1.57999,-2.39099 -4.427,-10.58301 -11.76098,-18.31599 -22.375,-22.86099 -2.259,-0.966 -4.58801,-1.422 -7.022,-1.513 -5.67792,-0.218 -10.1329,2.70999 -12.13892,8.048 z M 331.785,303.815 c 5.279,-3.323 11.379,-1.22198 12.62799,4.41199 0.71601,3.23901 -1.05398,6.05399 -4.27899,6.80801 -5.51901,1.29001 -10.00201,-1.99301 -10.30899,-7.49301 -0.094,-1.68298 0.521,-2.82098 1.95999,-3.72699 z"
               style="fill:#f25985;fill-opacity:1;fill-rule:nonzero;stroke:none;stroke-width:0.994453"
               transform="matrix(1.0883805,0,0,1.0883805,0,968.97153)"
               clip-path="url(#clipPath72-3)"
               id="path100" /><path
               d="m 29.045,298.871 c 0.726999,-0.767 1.335001,-1.73498 2.464001,-2.11099 0.732,0.94299 0.853998,1.95001 1.140001,2.883 1.609001,5.23199 3.987,10.083 7.161999,14.54 4.800999,6.741 10.857998,11.81 18.938999,14.16199 4.445,1.29199 8.906998,1.64002 13.278,-0.225 7.401001,-3.159 10.288002,-9.357 10.538002,-16.85599 0.281998,-8.474 -2.626999,-16.17099 -6.833,-23.414 -0.399002,-0.689 -0.986,-1.28299 -1.047997,-2.318 4.069,0.68201 8.121002,1.357 12.205002,1.452 8.784004,0.20599 17.152003,-1.793 25.075003,-5.50299 4.125,-1.93201 7.781,-4.58402 10.454,-8.414 6.152,-8.81299 4.199,-18.082 -4.07399,-23.601 -5.322,-3.549 -11.247,-5.29601 -17.553,-5.72301 -7.469007,-0.507 -14.844007,0.17101 -22.081006,2.192 -2.160004,0.603 -4.360001,1.07001 -6.629997,1.62101 0.057,-1.068 0.653999,-1.538 1.031997,-2.10401 6.404999,-9.57699 10.758003,-19.957 12.297997,-31.429 0.620002,-4.619 0.637001,-9.227 -0.966004,-13.69501 -2.650001,-7.392 -9.061996,-10.921 -16.710998,-9.306 -4.428002,0.935 -8.306999,3.01 -11.862,5.685 -8.135002,6.12199 -14.652,13.69501 -19.776001,22.483 -1.201999,2.06301 -2.441002,4.10401 -3.701,6.218 -0.896,-0.888 -0.846001,-1.815 -0.992,-2.68899 -1.89,-11.31599 -7.262002,-20.52 -16.556,-27.371 -1.978,-1.458 -4.141,-2.433 -6.49,-3.079 -3.0019999,-0.824 -5.862,-0.647 -8.3570003706055,0.46201 v 77.50702 C 0.26800761,270.29904 0.5350076,270.36603 0.80200762,270.44104 c -0.23500002,0.36899 -0.51099998,0.633 -0.8019999906055,0.849 v 46.26099 C 5.4980078,316.17102 10.604008,313.79803 15.418008,310.70203 20.535,307.41299 24.886999,303.26199 29.045,298.871 Z m 5.9,-39.95999 c 0.292999,-1.65799 1.152,-2.625 2.759998,-3.179 5.898998,-2.02901 11.356998,1.411 11.284,7.18199 -0.043,3.31601 -2.409999,5.65302 -5.722,5.64899 -5.667,-0.006 -9.280998,-4.22598 -8.321998,-9.65198 z"
               style="fill:#f25985;fill-opacity:1;fill-rule:nonzero;stroke:none;stroke-width:0.994453"
               transform="matrix(1.0883805,0,0,1.0883805,0,968.97153)"
               clip-path="url(#clipPath73-2)"
               id="path101" /><path
               d="m 105.949,701.27002 c -5.87001,-2.54401 -12.010005,-3.20697 -18.292002,-2.50299 -7.440003,0.83197 -14.576004,2.81299 -21.336998,6.091 -2.017998,0.97901 -4.098999,1.83002 -6.235001,2.776 -0.134998,-1.06097 0.369999,-1.62903 0.640999,-2.25403 4.596001,-10.56402 7.028999,-21.55499 6.500999,-33.117 -0.212997,-4.65601 -1.016998,-9.19202 -3.390998,-13.30402 -3.925,-6.80102 -10.862999,-9.13098 -18.100998,-6.17901 -4.191002,1.70898 -7.638001,4.44299 -10.66,7.70801 -6.914,7.474 -11.977001,16.08599 -15.452999,25.64697 -0.815001,2.24402 -1.67,4.47302 -2.534001,6.77698 -1.040001,-0.71399 -1.156,-1.63501 -1.455,-2.469 C 12.493,681.69598 7.3509998,674.71997 0,669.68201 v 120.37298 c 5.8330002,-2.36999 10.961,-5.87597 15.582,-10.18799 4.449,-4.14898 7.991999,-9.00897 11.300999,-14.07 0.579001,-0.88501 1.005,-1.94501 2.048001,-2.51703 0.888,0.79797 1.187999,1.768 1.635999,2.63501 2.515002,4.86102 5.72,9.211 9.638003,13.031 5.925999,5.77698 12.789001,9.68598 21.16,10.56 4.604999,0.47998 9.057003,0.026 13.024997,-2.58697 6.720002,-4.42701 8.457001,-11.03998 7.365998,-18.46503 -1.233002,-8.38702 -5.467003,-15.44397 -10.897003,-21.82001 -0.515,-0.60699 -1.198998,-1.08697 -1.444001,-2.09399 4.126,-0.055 8.233002,-0.11298 12.267998,-0.74597 8.681,-1.362 16.557999,-4.82001 23.692999,-9.88202 3.715,-2.63599 6.839,-5.89698 8.787,-10.14301 4.48401,-9.76996 0.91101,-18.54297 -8.21399,-22.49896 z M 35.478001,733.44 c -5.577999,1.00299 -9.887001,-2.505 -9.91,-8.01501 -0.007,-1.685 0.666,-2.789 2.149999,-3.62 5.442999,-3.04699 11.427,-0.63501 12.383002,5.05603 0.549,3.27198 -1.364002,5.99201 -4.623001,6.57898 z"
               style="fill:#f25985;fill-opacity:1;fill-rule:nonzero;stroke:none;stroke-width:0.994453"
               transform="matrix(1.0883805,0,0,1.0883805,0,968.97153)"
               clip-path="url(#clipPath74-6)"
               id="path102" /><path
               d="m 134.381,492.72601 c 1.477,-0.12399 2.617,0.59 3.681,1.48999 0.246,-0.763 0.856,-0.62201 1.412,-0.544 0.774,0.108 1.54899,0.22799 2.313,0.392 2.11101,0.45498 4.31101,0.36801 6.463,0.97198 -0.38699,0.60699 -0.933,0.81299 -1.395,1.12 -3.997,2.643 -7.872,5.42099 -10.79601,9.311 -2.506,3.33401 -4.701,6.823 -5.33701,11.047 -0.59899,3.98401 0.56,7.375 3.799,9.849 3.224,2.46301 6.923,3.276 10.91299,2.57501 4.76801,-0.83899 9.12301,-2.72601 13.185,-5.33801 3.63001,-2.33399 6.718,-5.279 9.668,-8.39502 0.51601,-0.54401 0.94701,-1.23102 1.748,-1.49799 0.519,0.66901 0.60601,1.38397 0.80901,2.04602 1.14101,3.71198 2.828,7.15302 5.08099,10.315 3.40601,4.78199 7.70301,8.37799 13.437,10.047 3.15401,0.91699 6.32001,1.164 9.421,-0.15997 5.25101,-2.24103 7.299,-6.638 7.476,-11.95899 0.2,-6.01202 -1.864,-11.47302 -4.84801,-16.61099 -0.283,-0.48901 -0.69999,-0.91 -0.74299,-1.64401 2.88699,0.483 5.76199,0.962 8.659,1.03 6.23199,0.14599 12.169,-1.27201 17.79,-3.905 2.92701,-1.371 5.52001,-3.25202 7.417,-5.969 4.365,-6.25299 2.979,-12.82901 -2.89101,-16.74499 -3.776,-2.51801 -7.979,-3.75699 -12.453,-4.06101 -5.299,-0.359 -10.532,0.12201 -15.665,1.555 -1.53199,0.42898 -3.093,0.759 -4.70399,1.14999 0.04,-0.75699 0.464,-1.091 0.73199,-1.49301 4.54401,-6.79401 7.63201,-14.159 8.72501,-22.29801 0.44,-3.277 0.452,-6.54599 -0.685,-9.716 -1.88,-5.24399 -6.429,-7.74798 -11.85499,-6.60199 -3.14101,0.664 -5.894,2.13599 -8.416,4.034 -5.77201,4.34299 -10.39501,9.716 -14.03,15.95001 -0.853,1.46399 -1.732,2.91101 -2.62601,4.41101 -0.636,-0.63 -0.60001,-1.28799 -0.70399,-1.90799 -1.34101,-8.02798 -5.15301,-14.55801 -11.74601,-19.418 -1.403,-1.03399 -2.938,-1.72699 -4.60499,-2.185 -3.885,-1.06698 -7.437,0.23301 -9.689,3.594 -2.097,3.13199 -2.46001,6.64801 -2.05499,10.26199 0.58099,5.18 2.328,9.96701 5.181,14.345 0.23599,0.362 0.766,0.68399 0.38,1.34299 -0.694,-0.15399 -1.38099,-0.28699 -2.05999,-0.45801 -3.40401,-0.85699 -6.851,-1.37201 -10.36501,-1.13199 -3.65199,0.24799 -7.195,0.94001 -10.418,2.82801 -5.349,3.13101 -6.059,8.832 -3.12,13.45498 1.973,3.10401 4.769,5.23801 8.049,6.82001 1.593,0.77097 3.36,1.13098 4.86701,2.09799 z m 38.093,-5.871 c 0.20799,-1.177 0.81799,-1.86301 1.95799,-2.255 4.185,-1.439 8.05701,1.001 8.006,5.095 -0.03,2.35299 -1.71001,4.01001 -4.06,4.00699 -4.021,-0.004 -6.58499,-2.999 -5.90399,-6.84699 z"
               style="fill:#f25985;fill-opacity:1;fill-rule:nonzero;stroke:none;stroke-width:0.994453"
               transform="matrix(1.0883805,0,0,1.0883805,0,968.97153)"
               clip-path="url(#clipPath75-7)"
               id="path103" /><path
               d="m 433.79901,774.59003 c -0.556,-2.20697 -1.582,-4.30701 -1.69601,-6.59497 0.93701,-0.46997 1.71899,-0.085 2.46701,0.10998 13.18499,3.47302 26.444,3.50098 39.74499,0.81897 5.83301,-1.177 11.556,-2.79101 16.67902,-5.94202 3.185,-1.958 6.02801,-4.33801 7.669,-7.85601 3.02399,-6.47699 2.05802,-12.55799 -1.97601,-18.21698 -4.405,-6.18 -10.42898,-10.18799 -17.57901,-12.59998 -9.20001,-3.104 -18.63598,-3.93298 -28.26999,-3.11798 -1.69601,0.14301 -3.42599,0.466 -5.432,0.058 2.21301,-2.229 4.22799,-4.17297 6.14898,-6.20599 6.07999,-6.43799 11.935,-13.04199 15.88501,-21.09601 2.53501,-5.16998 3.79001,-10.58899 3.38199,-16.33697 -0.27899,-3.93103 -1.69299,-7.46503 -4.42801,-10.33698 -5.39999,-5.66998 -12.06299,-7.70001 -19.73999,-6.53802 -6.82199,1.03399 -12.80801,4.083 -18.39099,7.94598 -6.31299,4.36902 -11.69199,9.78101 -16.72198,15.54999 -1.594,1.82898 -3.211,3.63898 -5.12,5.79602 -0.159,-4.341 -0.19601,-8.14899 -0.617,-11.94202 -1.004,-9.01501 -3.474,-17.57599 -8.23001,-25.32001 -4.06202,-6.61602 -9.53602,-11.656 -17.39499,-13.46197 -4.78101,-1.09802 -9.19001,-0.37201 -13.013,2.896 -1.99399,1.70202 -3.922,3.51202 -5.20002,5.80798 -4.46499,8.02197 -6.59298,16.51001 -5.35,25.78497 1.33499,9.96698 5.06299,18.982 10.13699,27.54199 1.37601,2.32099 2.65302,4.70002 3.97601,7.05103 -0.16,0.13702 -0.32,0.27197 -0.48001,0.409 -6.39599,-3.72998 -12.86499,-7.32801 -19.565,-10.474 -8.185,-3.84601 -16.5,-7.40003 -25.28299,-9.67298 -5.392,-1.39599 -10.87399,-2.21698 -16.39899,-0.78399 -6.1,1.58197 -10.63501,5.12903 -12.98098,11.10101 -2.10102,5.34699 -1.51001,10.67499 0.56698,15.88098 4.10001,10.27503 11.64701,17.12799 21.60901,21.552 8.69199,3.85999 17.841,6.11701 27.15,7.83399 0.70401,0.12903 1.609,-0.107 2.117,0.84198 -0.80399,0.31701 -1.53799,0.643 -2.29401,0.901 -12.24099,4.16699 -21.402,12.091 -28.01199,23.06702 -2.03299,3.37597 -3.401,7.065 -4.061,10.96301 -0.98801,5.83502 0.25698,11.00598 4.889,15.02002 2.76999,2.39898 6.10901,3.354 9.698,3.56799 5.396,0.32202 10.67999,-0.53302 15.76001,-2.17999 12.74399,-4.12903 24.539,-10.03003 34.405,-19.34198 0.81399,-0.77002 1.53201,-1.88501 2.99301,-1.98499 0.65302,1.75501 0.634,3.58197 0.90601,5.34302 1.25699,8.14301 3.764,15.797 8.233,22.79999 3.66598,5.74298 8.211,10.66101 13.487,14.88202 3.789,3.03302 8.035,5.32098 12.88199,6.27502 6.41598,1.263 12.82699,-1.14203 16.28201,-6.58197 1.871,-2.94598 3.04199,-6.08899 3.659,-9.48901 2.07995,-11.45813 0.30096,-22.62415 -2.49204,-33.72412 z M 400.375,740.29602 c -3.52499,1.37201 -7.37201,0.89398 -10.56699,-1.39099 -1.97601,-1.23297 -3.27398,-3.14099 -2.90499,-5.86298 0.36801,-2.72198 2.22,-4.20599 4.613,-5.06598 2.94101,-1.05798 5.94501,-1.02301 8.871,0.048 3.45301,1.26703 4.776,3.724 4.74701,6.643 -0.03,2.93695 -2.16302,4.61896 -4.75903,5.62897 z"
               style="fill:#f25985;fill-opacity:1;fill-rule:nonzero;stroke:none;stroke-width:0.994453"
               transform="matrix(1.0883805,0,0,1.0883805,0,968.97153)"
               clip-path="url(#clipPath76-4)"
               id="path104" /><path
               d="m 975.745,285.14499 c -3.53302,4.70001 -6.62598,9.616 -7.52302,15.57001 -0.84497,5.61599 0.78901,10.39599 5.35499,13.884 4.54303,3.47 9.75799,4.617 15.38201,3.62701 1.07001,-0.18799 2.12598,-0.414 3.167,-0.67498 v -46.26102 c -0.38398,0.285 -0.79401,0.48498 -1.164,0.73099 -5.63495,3.725 -11.09595,7.64199 -15.21698,13.12399 z"
               style="fill:#f25985;fill-opacity:1;fill-rule:nonzero;stroke:none;stroke-width:0.994453"
               transform="matrix(1.0883805,0,0,1.0883805,0,968.97153)"
               clip-path="url(#clipPath77-7)"
               id="path105" /><path
               d="m 986.82501,197.33501 c -2.95599,4.414 -3.46698,9.371 -2.89697,14.46499 0.81799,7.303 3.28198,14.049 7.302,20.22 0.33197,0.51 1.08002,0.963 0.53601,1.89301 -0.97803,-0.217 -1.94702,-0.405 -2.90399,-0.646 -4.79797,-1.209 -9.65698,-1.933 -14.61102,-1.59599 -5.14698,0.35001 -10.14099,1.325 -14.685,3.985 -7.539,4.414 -8.53998,12.44901 -4.39801,18.966 2.78198,4.37401 6.72198,7.38399 11.34601,9.613 2.24902,1.08401 4.73999,1.591 6.86401,2.953 2.08197,-0.17301 3.69,0.83301 5.18799,2.10199 0.34601,-1.07599 1.20599,-0.87702 1.99103,-0.767 1.09198,0.15201 2.18298,0.32101 3.26001,0.552 2.71301,0.58402 5.531,0.534 8.307,1.16599 v -77.50701 c -2.05609,0.91201 -3.86511,2.459 -5.29907,4.60102 z"
               style="fill:#f25985;fill-opacity:1;fill-rule:nonzero;stroke:none;stroke-width:0.994453"
               transform="matrix(1.0883805,0,0,1.0883805,0,968.97153)"
               clip-path="url(#clipPath78-8)"
               id="path106" /><path
               d="m 979.65503,664.58698 c -5.65698,-0.50403 -10.25702,2.19 -12.53601,7.41802 -2.12299,4.87 -1.74201,9.83899 -0.27399,14.74903 2.107,7.04101 5.73297,13.23999 10.789,18.59601 0.41803,0.44201 1.23401,0.755 0.86402,1.76703 -1.00098,-0.039 -1.98798,-0.052 -2.97199,-0.11902 -4.93701,-0.33399 -9.84698,-0.18103 -14.66101,1.03302 -5.00299,1.26098 -9.74298,3.11102 -13.73999,6.53802 -6.63202,5.68701 -6.185,13.771 -0.948,19.44599 3.51599,3.80798 7.93,6.06701 12.87702,7.43701 2.406,0.66601 4.94702,0.72101 7.28003,1.68298 2.018,-0.54199 3.77899,0.16199 5.47998,1.14398 0.14898,-1.12097 1.031,-1.078 1.82299,-1.10998 1.10102,-0.045 2.20502,-0.074 3.30604,-0.038 3.04199,0.1 6.07202,-0.57202 9.208,-0.27698 -0.38397,0.94098 -1.09002,1.36402 -1.65399,1.90503 -4.88,4.66901 -9.55597,9.49701 -12.63397,15.625 -2.63898,5.25403 -4.80701,10.64399 -4.62799,16.66199 0.169,5.677 2.62799,10.08899 7.74298,12.706 5.09003,2.60601 10.42499,2.80499 15.78302,0.83001 0.45898,-0.16998 0.914,-0.34601 1.36401,-0.52899 V 669.68204 c -1.72302,-1.18103 -3.56701,-2.25501 -5.53601,-3.22199 -2.2052,-1.08099 -4.5072,-1.656 -6.93414,-1.87304 z"
               style="fill:#f25985;fill-opacity:1;fill-rule:nonzero;stroke:none;stroke-width:0.994453"
               transform="matrix(1.0883805,0,0,1.0883805,0,968.97153)"
               clip-path="url(#clipPath79-8)"
               id="path107" /><path
               d="m 676.34601,354.276 c 5.10699,-1.772 9.65802,-4.59 13.71698,-8.05899 10.18402,-8.703 18.81201,-18.67801 24.35101,-31.06201 0.45697,-1.022 0.69202,-2.32901 2.00202,-2.98099 1.27697,1.37 1.96002,3.065 2.88598,4.586 4.28498,7.03799 9.53601,13.14499 16.35102,17.897 5.58898,3.89701 11.67297,6.69501 18.164,8.568 4.66302,1.34698 9.46197,1.83099 14.30401,0.85299 6.409,-1.29501 11.40699,-5.97601 12.51099,-12.32501 0.59802,-3.43899 0.47302,-6.79001 -0.26099,-10.16699 -2.47302,-11.38001 -8.401,-21.01001 -15.23797,-30.18799 -1.35999,-1.82501 -3.11402,-3.371 -4.09699,-5.44101 0.685,-0.793 1.55499,-0.73801 2.32099,-0.84399 13.50799,-1.85102 25.763,-6.91199 37.01696,-14.491 4.935,-3.32401 9.60102,-7.01001 13.12299,-11.88699 2.19098,-3.03 3.90198,-6.318 4.06799,-10.19701 0.30799,-7.14101 -2.91803,-12.386 -8.81402,-16.065 -6.43903,-4.017 -13.53998,-5.40601 -21.068,-4.892 -9.68701,0.66299 -18.71899,3.517 -27.302,7.96699 -1.51098,0.782 -2.98498,1.74401 -4.99499,2.137 1.18902,-2.907 2.30401,-5.476 3.29699,-8.09 3.14502,-8.278 6.01801,-16.623 6.57599,-25.576 0.35797,-5.747 -0.56201,-11.232 -3.14398,-16.38401 -1.76599,-3.52299 -4.427,-6.24499 -8.05499,-7.847 -7.16199,-3.16499 -14.094,-2.483 -20.73798,1.53501 -5.90301,3.572 -10.26098,8.685 -13.935,14.395 -4.15399,6.456 -7.04498,13.51801 -9.47601,20.775 -0.771,2.3 -1.57001,4.59199 -2.50403,7.31799 -1.81299,-3.94901 -3.307,-7.451 -5.15198,-10.79201 -4.38598,-7.93899 -9.95202,-14.89799 -17.31402,-20.225 -6.28998,-4.551 -13.27802,-7.105 -21.229,-5.75901 -4.836,0.82001 -8.62903,3.183 -10.90601,7.667 -1.18799,2.33799 -2.27503,4.748 -2.573,7.35899 -1.04498,9.121 0.245,17.776 4.95203,25.865 5.057,8.69201 11.95801,15.58701 19.92798,21.545 2.16101,1.61501 4.25299,3.32201 6.37701,4.98601 -0.095,0.188 -0.19098,0.37399 -0.28601,0.562 -7.33801,-0.991 -14.69202,-1.832 -22.08698,-2.16701 -9.03399,-0.411 -18.07598,-0.50301 -27.05902,0.767 -5.51501,0.78 -10.89203,2.125 -15.445,5.56799 -5.026,3.802 -7.85303,8.81699 -7.72901,15.23099 0.11103,5.74399 2.70099,10.43799 6.61603,14.448 7.729,7.91699 17.32703,11.35 28.224,11.613 9.50702,0.23001 18.82202,-1.195 28.078,-3.182 0.70001,-0.15 1.44397,-0.715 2.27802,-0.035 -0.62097,0.60199 -1.17401,1.185 -1.77301,1.71201 -9.70502,8.544 -15.125,19.37701 -17.01801,32.04901 -0.58197,3.89801 -0.42999,7.82999 0.456,11.68201 1.32702,5.768 4.46002,10.065 10.27801,11.99398 3.47601,1.15607 6.92596,0.75705 10.323,-0.42294 z m 31.85602,-89.70099 c 2.31097,-2.10501 5.09802,-3.22601 8.21002,-3.35901 3.67499,-0.155 5.83899,1.60599 6.93298,4.314 1.099,2.72299 -0.22497,5.095 -2.23498,7.02301 -2.72901,2.61899 -6.46503,3.655 -10.292,2.771 -2.29797,-0.38102 -4.22802,-1.64499 -4.932,-4.301 -0.70502,-2.65402 0.43597,-4.73602 2.31598,-6.448 z"
               style="fill:#f25985;fill-opacity:1;fill-rule:nonzero;stroke:none;stroke-width:0.994453"
               transform="matrix(1.0883805,0,0,1.0883805,0,968.97153)"
               clip-path="url(#clipPath80-7)"
               id="path108" /><path
               d="m 108.812,65.695999 c 9.24299,6.079003 19.354,7.378998 30.055,5.305 9.336,-1.809997 18.13001,-5.194999 26.747,-9.116001 0.65199,-0.297001 1.25799,-1.008999 2.218,-0.521999 -0.478,0.720001 -0.89301,1.409 -1.366,2.052002 -7.653,10.422996 -10.62899,22.164001 -9.766,34.948006 0.265,3.932003 1.255,7.739993 2.945,11.314003 2.53,5.35 6.51,8.877 12.60601,9.517 3.64399,0.382 6.929,-0.746 9.99499,-2.625 4.609,-2.824 8.452,-6.551 11.67501,-10.807 8.08599,-10.680002 14.38,-22.270006 17.141,-35.552003 0.22701,-1.097 0.177,-2.422997 1.31799,-3.339997 1.54,1.065003 2.571,2.573998 3.80001,3.862 5.692,5.958 12.128,10.800003 19.802,13.984001 6.293,2.611 12.83501,4.042 19.577,4.483002 4.843,0.318001 9.63499,-0.235001 14.15599,-2.226998 5.983,-2.637001 9.86401,-8.277999 9.58401,-14.716003 -0.15201,-3.487 -0.991,-6.734001 -2.431,-9.875 -4.85101,-10.588001 -12.70199,-18.724999 -21.345,-26.228001 -1.71899,-1.491001 -3.763,-2.626999 -5.166,-4.437999 0.49899,-0.922001 1.36101,-1.053 2.086,-1.322001 12.8,-4.698 23.688,-12.265001 33.059,-22.0769996 2.17801,-2.2810001 4.262,-4.6459999 6.09501,-7.1859998 H 137.97301 c 6.06599,5.637 13.058,9.8830004 20.64199,13.3280004 2.456,1.114999 4.866,2.334999 7.29601,3.506 -0.053,0.204001 -0.10699,0.406 -0.16,0.610001 -7.379,0.601999 -14.74401,1.354 -22.039,2.608999 -8.913,1.532 -17.765,3.375999 -26.268,6.539999 -5.22,1.941999 -10.185,4.406002 -13.89601,8.743 -4.096996,4.789002 -5.783992,10.293999 -4.290996,16.533001 1.338996,5.586987 4.872996,9.617989 9.554996,12.696987 z m 85.358,-43.566 c 1.80701,-2.551 4.289,-4.242 7.30099,-5.038 3.55701,-0.938 6.04801,0.319 7.696,2.73 1.65601,2.424999 0.87,5.024999 -0.681,7.339 -2.10499,3.142 -5.533,4.952999 -9.461,4.908001 -2.32699,0.119999 -4.48199,-0.701999 -5.738,-3.145 C 192.03101,26.483 192.7,24.205999 194.17,22.129999 Z"
               style="fill:#f25985;fill-opacity:1;fill-rule:nonzero;stroke:none;stroke-width:0.994453"
               transform="matrix(1.0883805,0,0,1.0883805,0,968.97153)"
               clip-path="url(#clipPath81-4)"
               id="path109" /><path
               d="m 443.79999,19.75 c 1.595,0.768999 3.362,1.129 4.86999,2.094999 1.47699,-0.122999 2.61701,0.59 3.681,1.491 0.246,-0.764 0.85599,-0.622 1.413,-0.544001 0.77398,0.107 1.54901,0.226999 2.31201,0.391001 2.11099,0.455 4.311,0.368 6.46301,0.971 -0.38699,0.608 -0.93301,0.814 -1.39499,1.120001 -3.99701,2.643 -7.87201,5.421999 -10.79599,9.310999 -2.50601,3.334999 -4.70099,6.822998 -5.337,11.047001 -0.599,3.985001 0.55899,7.375999 3.79901,9.850002 3.224,2.461998 6.923,3.276001 10.91299,2.574002 4.76801,-0.839001 9.12299,-2.726002 13.185,-5.338002 3.63,-2.333999 6.71799,-5.278999 9.668,-8.394001 0.51599,-0.543998 0.948,-1.230999 1.74799,-1.498001 0.51901,0.668999 0.60598,1.383999 0.80899,2.046002 1.14099,3.711998 2.828,7.153999 5.08099,10.316002 3.40601,4.782001 7.703,8.378997 13.43701,10.046997 3.15399,0.916999 6.319,1.163002 9.41998,-0.160004 5.25098,-2.241001 7.29902,-6.638001 7.47602,-11.959 0.20001,-6.012001 -1.86402,-11.472999 -4.84803,-16.611 -0.28302,-0.488998 -0.70001,-0.91 -0.74298,-1.645 2.88703,0.484001 5.76203,0.963001 8.65802,1.030998 6.232,0.146 12.16901,-1.271999 17.78998,-3.905001 2.927,-1.370001 5.52002,-3.252 7.41699,-5.969 4.36499,-6.253 2.97901,-12.828 -2.89099,-16.743999 -3.776,-2.5180001 -7.979,-3.757 -12.453,-4.0609999 -5.29901,-0.3590002 -10.53101,0.1220002 -15.66498,1.5559998 -1.53302,0.428 -3.09302,0.7589998 -4.703,1.1500001 0.04,-0.757 0.46399,-1.0910001 0.73199,-1.4930001 1.15503,-1.7269997 2.21601,-3.4909999 3.17401,-5.295 h -80.328 c -3.298,3.2439999 -3.41199,7.9039998 -0.936,11.8000001 1.97299,3.104005 4.76898,5.238004 8.04898,6.820005 z m 42.962,-3.776 c 0.20801,-1.177 0.81699,-1.863 1.95801,-2.256 4.18601,-1.439 8.05701,1.001001 8.00601,5.096001 -0.03,2.353001 -1.70999,4.01 -4.05999,4.008 -4.02002,-0.004 -6.58503,-2.998002 -5.90403,-6.848001 z"
               style="fill:#f25985;fill-opacity:1;fill-rule:nonzero;stroke:none;stroke-width:0.994453"
               transform="matrix(1.0883805,0,0,1.0883805,0,968.97153)"
               clip-path="url(#clipPath82-1)"
               id="path110" /><path
               d="m 861.29498,1.13 c -0.82397,0.4069999 -1.64099,0.834 -2.45099,1.2799998 -1.96502,1.0809999 -3.99902,2.0380002 -6.08398,3.0939999 -0.18903,-1.052 0.28497,-1.6470001 0.52399,-2.2839999 0.26098,-0.6950002 0.51202,-1.392 0.755,-2.089 h -81.14099 c 1.56897,2.099 3.32599,4.076 5.26801,5.9310005 0.44,0.421 1.27197,0.691 0.95398,1.7200002 -1.00202,0.013 -1.987,0.05 -2.974,0.034 -4.94703,-0.08 -9.84302,0.3260003 -14.58899,1.7860005 -4.93103,1.517 -9.56897,3.609 -13.38501,7.237 -6.33002,6.021 -5.46802,14.071998 0.054,19.468998 3.70801,3.623001 8.232,5.651001 13.24298,6.764 2.43702,0.541999 4.97803,0.465999 7.357,1.305999 1.98797,-0.645 3.78198,-0.033 5.531,0.860001 0.091,-1.126999 0.974,-1.129002 1.76301,-1.202 1.09698,-0.102001 2.19799,-0.187 3.29998,-0.208 3.042,-0.057 6.034,-0.884998 9.18097,-0.75 -0.336,0.959 -1.01898,1.417999 -1.55401,1.987 -4.633,4.914001 -9.05402,9.977001 -11.81299,16.255001 -2.36499,5.383003 -4.25202,10.876999 -3.76398,16.877998 0.46198,5.661003 3.14502,9.941002 8.38702,12.292 5.21698,2.339996 10.55597,2.264 15.80402,0.015 6.27197,-2.686996 11.64002,-6.679001 16.37201,-11.573997 4.229,-4.372002 7.51801,-9.408997 10.56097,-14.633003 0.53199,-0.913002 0.90302,-1.994 1.91602,-2.619 0.92798,0.750999 1.27698,1.703999 1.77002,2.547001 2.76202,4.724998 6.18597,8.903999 10.29602,12.517998 6.21503,5.463997 13.27002,9.014999 21.67603,9.457 4.62298,0.241997 9.04602,-0.440002 12.875,-3.254997 6.48297,-4.766998 7.87701,-11.460998 6.40502,-18.819 -1.66302,-8.313 -6.255,-15.142998 -12.005,-21.231003 -0.54602,-0.580002 -1.25299,-1.023998 -1.54999,-2.016998 4.11701,-0.266998 8.21601,-0.535999 12.21301,-1.376 8.599,-1.806999 16.28803,-5.666999 23.15302,-11.089 3.57397,-2.824 6.526,-6.241001 8.25403,-10.581002 2.79602,-7.026 1.63501,-13.3540001 -2.54401,-17.7019997 h -43.75818 v -9.967e-4 z m -31.781,31.412 c -5.51898,1.289001 -10.00299,-1.993 -10.30902,-7.494 -0.094,-1.681999 0.52099,-2.819999 1.96099,-3.725999 5.279,-3.324 11.37903,-1.222001 12.62702,4.412 0.716,3.237999 -1.05396,6.053999 -4.27899,6.807999 z"
               style="fill:#f25985;fill-opacity:1;fill-rule:nonzero;stroke:none;stroke-width:0.994453"
               transform="matrix(1.0883805,0,0,1.0883805,0,968.97153)"
               clip-path="url(#clipPath83-5)"
               id="path111" /><path
               d="m 775.57202,827.03101 c 2.927,-1.37098 5.52002,-3.25202 7.41699,-5.96997 4.36499,-6.253 2.97901,-12.82801 -2.89099,-16.74402 -3.776,-2.51801 -7.979,-3.75702 -12.45398,-4.06098 -5.29797,-0.35901 -10.531,0.12201 -15.66498,1.555 -1.53302,0.42901 -3.09301,0.75897 -4.70397,1.15002 0.04,-0.75702 0.46398,-1.091 0.73199,-1.492 4.54401,-6.79401 7.63202,-14.159 8.72498,-22.29798 0.44,-3.27698 0.45202,-6.54498 -0.685,-9.716 -1.88001,-5.24402 -6.42902,-7.74799 -11.85498,-6.60199 -3.14099,0.664 -5.89398,2.13598 -8.41602,4.03399 -5.77197,4.34302 -10.39502,9.71601 -14.03003,15.95002 -0.85302,1.46399 -1.73199,2.91198 -2.62597,4.41198 -0.63599,-0.63 -0.59998,-1.28802 -0.70398,-1.90802 -1.34101,-8.02801 -5.15198,-14.55798 -11.74598,-19.419 -1.40301,-1.034 -2.93798,-1.72602 -4.60498,-2.18402 -3.88501,-1.06702 -7.43701,0.23199 -9.68902,3.59399 -2.09802,3.13098 -2.46002,6.64801 -2.05603,10.26203 0.58002,5.18103 2.328,9.96698 5.18103,14.346 0.23602,0.362 0.76599,0.68402 0.38,1.34302 -0.69397,-0.15399 -1.38098,-0.28699 -2.05999,-0.45801 -3.404,-0.85699 -6.85102,-1.37097 -10.36499,-1.13202 -3.65198,0.24799 -7.19501,0.94001 -10.41803,2.82801 -5.349,3.13098 -6.05903,8.83197 -3.12,13.45501 1.974,3.10401 4.76898,5.23798 8.04901,6.82001 1.59497,0.77002 3.36298,1.12799 4.87,2.09497 1.47699,-0.12402 2.617,0.59003 3.68103,1.49103 0.24499,-0.76398 0.85602,-0.62201 1.41198,-0.54401 0.77399,0.10797 1.54902,0.22803 2.31299,0.39203 2.11103,0.45398 4.31098,0.36701 6.46302,0.97101 -0.38703,0.60797 -0.93299,0.81403 -1.39502,1.12 -3.99701,2.643 -7.87201,5.42199 -10.79602,9.31201 -2.50599,3.33398 -4.70099,6.82202 -5.33698,11.04602 -0.599,3.98401 0.56,7.375 3.79901,9.849 3.224,2.46301 6.92298,3.27697 10.91303,2.57501 4.768,-0.83899 9.12298,-2.72601 13.18499,-5.33801 3.63001,-2.33399 6.71802,-5.27899 9.66803,-8.39399 0.516,-0.544 0.948,-1.23101 1.74799,-1.49798 0.51898,0.66901 0.60602,1.38299 0.80902,2.04602 1.14099,3.711 2.828,7.15301 5.08099,10.315 3.40601,4.78198 7.70301,8.37903 13.43598,10.047 3.15399,0.91699 6.32001,1.164 9.42102,-0.15997 5.25098,-2.24103 7.29901,-6.638 7.47601,-11.95899 0.20001,-6.01202 -1.86401,-11.47302 -4.84802,-16.61102 -0.28302,-0.48902 -0.70001,-0.90997 -0.74298,-1.64502 2.88702,0.48401 5.76099,0.96301 8.659,1.03003 6.23284,0.14477 12.16882,-1.27423 17.78985,-3.90521 z m -48.737,-9.16498 c -4.02099,-0.004 -6.58502,-2.99903 -5.90503,-6.84699 0.20801,-1.177 0.818,-1.86297 1.95801,-2.25598 4.185,-1.43902 8.05701,1.00098 8.00598,5.09497 -0.03,2.35297 -1.70898,4.01099 -4.05896,4.008 z"
               style="fill:#f25985;fill-opacity:1;fill-rule:nonzero;stroke:none;stroke-width:0.994453"
               transform="matrix(1.0883805,0,0,1.0883805,0,968.97153)"
               clip-path="url(#clipPath84-8)"
               id="path112" /><path
               d="m 853.57703,497.60501 c -6.32203,-0.97501 -12.43103,-0.062 -18.33002,2.20902 -6.987,2.68798 -13.38898,6.41299 -19.099,11.29501 -1.70398,1.45798 -3.50201,2.80801 -5.32898,4.26401 -0.39899,-0.99103 -0.055,-1.66901 0.05,-2.34302 1.77099,-11.384 1.34302,-22.63199 -2.09601,-33.685 -1.38397,-4.45001 -3.31201,-8.63501 -6.64801,-12.01199 -5.51801,-5.586 -12.82098,-6.08301 -19.07599,-1.39499 -3.62097,2.715 -6.26501,6.23199 -8.36102,10.15601 -4.797,8.98001 -7.51502,18.59399 -8.45697,28.72299 -0.22101,2.37701 -0.48401,4.75 -0.73499,7.19803 -1.18701,-0.42701 -1.53198,-1.28901 -2.03302,-2.021 -6.48401,-9.46399 -15.23498,-15.54599 -26.55102,-17.84299 -2.40802,-0.487 -4.78101,-0.45999 -7.18299,-0.056 -5.59997,0.94501 -9.36798,4.715 -10.24902,10.35001 -0.82098,5.25 0.80603,9.95999 3.46899,14.33798 3.82001,6.27802 8.89801,11.357 15.14502,15.258 0.516,0.32299 1.38599,0.41803 1.28302,1.48999 -0.97802,0.21698 -1.93597,0.45398 -2.90503,0.638 -4.85998,0.927 -9.57202,2.31799 -13.92199,4.711 -4.52002,2.48602 -8.63703,5.47601 -11.63703,9.80297 -4.97601,7.18103 -2.49701,14.88898 4.00599,19.05201 4.36602,2.794 9.208,3.862 14.34002,3.93499 2.49597,0.035 4.969,-0.55499 7.469,-0.21502 1.815,-1.03601 3.69702,-0.80103 5.591,-0.28101 -0.14001,-1.12201 0.724,-1.30401 1.48199,-1.53497 1.05402,-0.32202 2.11499,-0.62903 3.18799,-0.87299 2.96802,-0.67401 5.72901,-2.09198 8.83802,-2.599 -0.13398,1.00702 -0.70899,1.59497 -1.11799,2.26099 -3.539,5.75299 -6.841,11.60797 -8.26702,18.31598 -1.22303,5.75 -1.95502,11.513 -0.25898,17.28998 1.60102,5.44897 5.09699,9.09497 10.70801,10.333 5.58301,1.232 10.79602,0.075 15.47803,-3.19299 5.59601,-3.90503 10.04199,-8.90301 13.68201,-14.656 3.25402,-5.141 5.45098,-10.73999 7.37097,-16.474 0.336,-1.00098 0.47998,-2.13599 1.34399,-2.95301 1.06098,0.547 1.59601,1.409 2.25,2.13398 3.664,4.06597 7.86499,7.46301 12.62299,10.16699 7.195,4.08899 14.82501,6.13202 23.14398,4.85901 4.57599,-0.70203 8.76898,-2.26801 11.94598,-5.80103 5.38001,-5.98401 5.38599,-12.82098 2.45099,-19.72803 -3.31598,-7.802 -9.198,-13.557 -16.06598,-18.35199 -0.65301,-0.45697 -1.43499,-0.74798 -1.927,-1.65997 3.97803,-1.09698 7.93597,-2.19202 11.67999,-3.82703 8.05298,-3.51599 14.79798,-8.85601 20.41901,-15.55999 2.927,-3.48999 5.12402,-7.43598 5.93402,-12.03699 1.86401,-10.58096 -3.81396,-18.16296 -13.64294,-19.68094 z m -60.03101,48.96298 c -5.143,2.383 -10.19897,0.08 -11.61499,-5.24402 -0.43402,-1.62799 -0.062,-2.867 1.16303,-4.04699 4.49499,-4.32599 10.89398,-3.508 13.26,1.75598 1.35792,3.02606 0.19697,6.14307 -2.80804,7.53503 z"
               style="fill:#f25985;fill-opacity:1;fill-rule:nonzero;stroke:none;stroke-width:0.994453"
               transform="matrix(1.0883805,0,0,1.0883805,0,968.97153)"
               clip-path="url(#clipPath85-9)"
               id="path113" /><path
               d="m 587.04901,508.479 c -3.776,-2.518 -7.979,-3.75698 -12.453,-4.05999 -5.29901,-0.35999 -10.53101,0.121 -15.66498,1.55499 -1.53302,0.42898 -3.09302,0.759 -4.70398,1.14999 0.04,-0.75699 0.46399,-1.091 0.73297,-1.49301 4.54401,-6.794 7.63202,-14.159 8.72498,-22.297 0.44,-3.27801 0.45202,-6.54599 -0.685,-9.71701 -1.88,-5.24398 -6.42902,-7.74798 -11.85602,-6.60199 -3.14099,0.66401 -5.89398,2.13599 -8.41601,4.034 -5.77198,4.34299 -10.39502,9.715 -14.03003,15.95099 -0.85303,1.46301 -1.73102,2.91101 -2.625,4.41101 -0.63599,-0.63 -0.59998,-1.28699 -0.70398,-1.90799 -1.34101,-8.02801 -5.15302,-14.55801 -11.74597,-19.418 -1.40302,-1.034 -2.93799,-1.72699 -4.60502,-2.185 -3.885,-1.06698 -7.43701,0.232 -9.68899,3.594 -2.09799,3.13199 -2.45999,6.64898 -2.056,10.263 0.58099,5.181 2.32901,9.96701 5.181,14.34601 0.23498,0.362 0.76599,0.68301 0.38,1.34201 -0.694,-0.15399 -1.38101,-0.288 -2.05999,-0.45801 -3.40399,-0.857 -6.85102,-1.371 -10.366,-1.13199 -3.65201,0.24899 -7.19501,0.94 -10.418,2.827 -5.349,3.13199 -6.05899,8.833 -3.11999,13.45599 1.97299,3.10303 4.76901,5.23798 8.04901,6.82001 1.595,0.77002 3.362,1.12903 4.86999,2.09497 1.478,-0.12299 2.61801,0.591 3.681,1.49103 0.245,-0.76398 0.85599,-0.62201 1.413,-0.54401 0.77398,0.10797 1.54901,0.22699 2.31201,0.39099 2.11099,0.45502 4.311,0.36798 6.46301,0.97101 -0.38699,0.60797 -0.93301,0.81403 -1.39499,1.12097 -3.99701,2.64301 -7.87201,5.42102 -10.79599,9.31098 -2.50601,3.33398 -4.70099,6.82299 -5.337,11.04699 -0.599,3.98401 0.55899,7.375 3.79901,9.84998 3.22299,2.46301 6.923,3.276 10.91299,2.57397 4.76801,-0.83899 9.12299,-2.72601 13.185,-5.33801 3.63,-2.33398 6.71802,-5.27899 9.66803,-8.39502 0.51599,-0.54401 0.94702,-1.23102 1.74798,-1.49701 0.51899,0.66901 0.60602,1.383 0.80903,2.04602 1.14099,3.711 2.828,7.15302 5.08099,10.315 3.406,4.78199 7.703,8.37903 13.43701,10.047 3.15399,0.91699 6.31903,1.164 9.41998,-0.159 5.25098,-2.242 7.29901,-6.63897 7.47602,-11.96002 0.20001,-6.01098 -1.86402,-11.47302 -4.84803,-16.60998 -0.28302,-0.48999 -0.70001,-0.91101 -0.74298,-1.64502 2.88703,0.48401 5.76203,0.96197 8.659,1.03003 6.23199,0.14599 12.16901,-1.27198 17.78998,-3.90399 2.92602,-1.37 5.52002,-3.25202 7.41699,-5.96998 4.36395,-6.2539 2.97797,-12.83093 -2.89203,-16.74591 z m -53.26404,13.54902 c -4.02099,-0.004 -6.58502,-2.99903 -5.90503,-6.84803 0.20801,-1.177 0.818,-1.86297 1.95899,-2.255 4.185,-1.439 8.05701,1.00097 8.00598,5.09497 -0.0299,2.35303 -1.70892,4.01105 -4.05994,4.00806 z"
               style="fill:#f25985;fill-opacity:1;fill-rule:nonzero;stroke:none;stroke-width:0.994453"
               transform="matrix(1.0883805,0,0,1.0883805,0,968.97153)"
               clip-path="url(#clipPath86-2)"
               id="path114" /></g></g></g></g></g></svg>
